ISO-10303-21;
HEADER;
/* Generated by software containing ST-Developer
 * from STEP Tools, Inc. (www.steptools.com) 
 */
/* OPTION: using custom renumber hook */

FILE_DESCRIPTION(
/* description */ ('STEP AP242 Edition 2',
'CAx-IF Rec.Pracs.---Representation and Presentation of Product Manufa
cturing Information (PMI)---4.0---2014-10-13',
'CAx-IF Rec.Pracs.---3D Tessellated Geometry---0.4---2014-09-14','2;1',
'CAx-IF Rec.Pracs.---User Defined Attributes---1.5---2016-08-15'),
/* implementation_level */ '2;1');

FILE_NAME(
/* name */ 'Part Studio 1 - Part 1',
/* time_stamp */ '2026-05-28T02:18:51Z',
/* author */ (''),
/* organization */ (''),
/* preprocessor_version */ 'ST-DEVELOPER v20',
/* originating_system */ 'ONSHAPE BY PTC INC, 1.215',
/* authorisation */ '  ');

FILE_SCHEMA (('AP242_MANAGED_MODEL_BASED_3D_ENGINEERING_MIM_LF { 1 0 10303 442 3 1 4 }'));
ENDSEC;

DATA;
#10=SHAPE_REPRESENTATION_RELATIONSHIP('','',#1367,#11);
#11=ADVANCED_BREP_SHAPE_REPRESENTATION('',(#1365),#2301);
#12=CONICAL_SURFACE('',#1437,0.0009,0.785398163397449);
#13=CONICAL_SURFACE('',#1438,0.0009,0.785398163397449);
#14=CONICAL_SURFACE('',#1439,0.0009,0.785398163397448);
#15=CONICAL_SURFACE('',#1440,0.0009,0.785398163397448);
#16=CONICAL_SURFACE('',#1473,0.0009,0.785398163397449);
#17=CONICAL_SURFACE('',#1475,0.0009,0.785398163397449);
#18=CONICAL_SURFACE('',#1477,0.0009,0.785398163397448);
#19=CONICAL_SURFACE('',#1479,0.0009,0.785398163397448);
#20=B_SPLINE_CURVE_WITH_KNOTS('',3,(#2058,#2059,#2060,#2061),
 .UNSPECIFIED.,.F.,.F.,(4,4),(0.,0.00028448278729276),.UNSPECIFIED.);
#21=B_SPLINE_CURVE_WITH_KNOTS('',3,(#2065,#2066,#2067,#2068),
 .UNSPECIFIED.,.F.,.F.,(4,4),(0.,0.000284482787292756),.UNSPECIFIED.);
#22=B_SPLINE_CURVE_WITH_KNOTS('',3,(#2077,#2078,#2079,#2080),
 .UNSPECIFIED.,.F.,.F.,(4,4),(1.38845624178386E-18,0.000284482787292758),
 .UNSPECIFIED.);
#23=B_SPLINE_CURVE_WITH_KNOTS('',3,(#2084,#2085,#2086,#2087),
 .UNSPECIFIED.,.F.,.F.,(4,4),(0.,0.00028448278729276),.UNSPECIFIED.);
#24=B_SPLINE_CURVE_WITH_KNOTS('',3,(#2096,#2097,#2098,#2099),
 .UNSPECIFIED.,.F.,.F.,(4,4),(0.,0.00028448278729276),.UNSPECIFIED.);
#25=B_SPLINE_CURVE_WITH_KNOTS('',3,(#2103,#2104,#2105,#2106),
 .UNSPECIFIED.,.F.,.F.,(4,4),(0.,0.000284482787292758),.UNSPECIFIED.);
#26=B_SPLINE_CURVE_WITH_KNOTS('',3,(#2115,#2116,#2117,#2118),
 .UNSPECIFIED.,.F.,.F.,(4,4),(1.38845624178386E-18,0.000284482787292758),
 .UNSPECIFIED.);
#27=B_SPLINE_CURVE_WITH_KNOTS('',3,(#2122,#2123,#2124,#2125),
 .UNSPECIFIED.,.F.,.F.,(4,4),(0.,0.00028448278729276),.UNSPECIFIED.);
#28=B_SPLINE_CURVE_WITH_KNOTS('',3,(#2183,#2184,#2185,#2186),
 .UNSPECIFIED.,.F.,.F.,(4,4),(0.,0.00028448278729276),.UNSPECIFIED.);
#29=B_SPLINE_CURVE_WITH_KNOTS('',3,(#2194,#2195,#2196,#2197),
 .UNSPECIFIED.,.F.,.F.,(4,4),(0.,0.000284482787292756),.UNSPECIFIED.);
#30=B_SPLINE_CURVE_WITH_KNOTS('',3,(#2207,#2208,#2209,#2210),
 .UNSPECIFIED.,.F.,.F.,(4,4),(1.38845624178386E-18,0.000284482787292758),
 .UNSPECIFIED.);
#31=B_SPLINE_CURVE_WITH_KNOTS('',3,(#2218,#2219,#2220,#2221),
 .UNSPECIFIED.,.F.,.F.,(4,4),(0.,0.00028448278729276),.UNSPECIFIED.);
#32=B_SPLINE_CURVE_WITH_KNOTS('',3,(#2231,#2232,#2233,#2234),
 .UNSPECIFIED.,.F.,.F.,(4,4),(0.,0.00028448278729276),.UNSPECIFIED.);
#33=B_SPLINE_CURVE_WITH_KNOTS('',3,(#2242,#2243,#2244,#2245),
 .UNSPECIFIED.,.F.,.F.,(4,4),(0.,0.000284482787292758),.UNSPECIFIED.);
#34=B_SPLINE_CURVE_WITH_KNOTS('',3,(#2255,#2256,#2257,#2258),
 .UNSPECIFIED.,.F.,.F.,(4,4),(1.38845624178386E-18,0.000284482787292758),
 .UNSPECIFIED.);
#35=B_SPLINE_CURVE_WITH_KNOTS('',3,(#2266,#2267,#2268,#2269),
 .UNSPECIFIED.,.F.,.F.,(4,4),(0.,0.00028448278729276),.UNSPECIFIED.);
#36=ELLIPSE('',#1405,0.00212132034355965,0.0015);
#37=ELLIPSE('',#1410,0.00212132034355965,0.0015);
#38=PLANE('',#1381);
#39=PLANE('',#1383);
#40=PLANE('',#1385);
#41=PLANE('',#1387);
#42=PLANE('',#1394);
#43=PLANE('',#1395);
#44=PLANE('',#1396);
#45=PLANE('',#1397);
#46=PLANE('',#1398);
#47=PLANE('',#1399);
#48=PLANE('',#1400);
#49=PLANE('',#1401);
#50=PLANE('',#1402);
#51=PLANE('',#1403);
#52=PLANE('',#1406);
#53=PLANE('',#1407);
#54=PLANE('',#1408);
#55=PLANE('',#1411);
#56=PLANE('',#1413);
#57=PLANE('',#1414);
#58=PLANE('',#1415);
#59=PLANE('',#1416);
#60=PLANE('',#1417);
#61=PLANE('',#1418);
#62=PLANE('',#1419);
#63=PLANE('',#1420);
#64=PLANE('',#1424);
#65=PLANE('',#1428);
#66=PLANE('',#1432);
#67=PLANE('',#1436);
#68=PLANE('',#1449);
#69=PLANE('',#1450);
#70=PLANE('',#1451);
#71=PLANE('',#1452);
#72=PLANE('',#1453);
#73=PLANE('',#1454);
#74=PLANE('',#1455);
#75=PLANE('',#1456);
#76=PLANE('',#1460);
#77=PLANE('',#1464);
#78=PLANE('',#1468);
#79=PLANE('',#1472);
#80=PLANE('',#1481);
#81=PLANE('',#1482);
#82=PLANE('',#1483);
#83=PLANE('',#1484);
#84=PLANE('',#1485);
#85=PLANE('',#1486);
#86=LINE('',#1862,#218);
#87=LINE('',#1866,#219);
#88=LINE('',#1871,#220);
#89=LINE('',#1875,#221);
#90=LINE('',#1880,#222);
#91=LINE('',#1884,#223);
#92=LINE('',#1889,#224);
#93=LINE('',#1893,#225);
#94=LINE('',#1895,#226);
#95=LINE('',#1900,#227);
#96=LINE('',#1902,#228);
#97=LINE('',#1907,#229);
#98=LINE('',#1909,#230);
#99=LINE('',#1914,#231);
#100=LINE('',#1916,#232);
#101=LINE('',#1919,#233);
#102=LINE('',#1921,#234);
#103=LINE('',#1923,#235);
#104=LINE('',#1924,#236);
#105=LINE('',#1927,#237);
#106=LINE('',#1931,#238);
#107=LINE('',#1933,#239);
#108=LINE('',#1935,#240);
#109=LINE('',#1937,#241);
#110=LINE('',#1939,#242);
#111=LINE('',#1943,#243);
#112=LINE('',#1945,#244);
#113=LINE('',#1947,#245);
#114=LINE('',#1951,#246);
#115=LINE('',#1953,#247);
#116=LINE('',#1957,#248);
#117=LINE('',#1959,#249);
#118=LINE('',#1963,#250);
#119=LINE('',#1965,#251);
#120=LINE('',#1969,#252);
#121=LINE('',#1971,#253);
#122=LINE('',#1972,#254);
#123=LINE('',#1974,#255);
#124=LINE('',#1975,#256);
#125=LINE('',#1977,#257);
#126=LINE('',#1978,#258);
#127=LINE('',#1980,#259);
#128=LINE('',#1981,#260);
#129=LINE('',#1983,#261);
#130=LINE('',#1985,#262);
#131=LINE('',#1988,#263);
#132=LINE('',#1989,#264);
#133=LINE('',#1991,#265);
#134=LINE('',#1993,#266);
#135=LINE('',#1994,#267);
#136=LINE('',#1996,#268);
#137=LINE('',#1998,#269);
#138=LINE('',#2000,#270);
#139=LINE('',#2002,#271);
#140=LINE('',#2004,#272);
#141=LINE('',#2006,#273);
#142=LINE('',#2008,#274);
#143=LINE('',#2010,#275);
#144=LINE('',#2012,#276);
#145=LINE('',#2014,#277);
#146=LINE('',#2015,#278);
#147=LINE('',#2017,#279);
#148=LINE('',#2019,#280);
#149=LINE('',#2021,#281);
#150=LINE('',#2023,#282);
#151=LINE('',#2025,#283);
#152=LINE('',#2028,#284);
#153=LINE('',#2030,#285);
#154=LINE('',#2032,#286);
#155=LINE('',#2036,#287);
#156=LINE('',#2038,#288);
#157=LINE('',#2040,#289);
#158=LINE('',#2042,#290);
#159=LINE('',#2044,#291);
#160=LINE('',#2048,#292);
#161=LINE('',#2053,#293);
#162=LINE('',#2055,#294);
#163=LINE('',#2062,#295);
#164=LINE('',#2063,#296);
#165=LINE('',#2070,#297);
#166=LINE('',#2072,#298);
#167=LINE('',#2074,#299);
#168=LINE('',#2081,#300);
#169=LINE('',#2082,#301);
#170=LINE('',#2089,#302);
#171=LINE('',#2091,#303);
#172=LINE('',#2093,#304);
#173=LINE('',#2100,#305);
#174=LINE('',#2101,#306);
#175=LINE('',#2108,#307);
#176=LINE('',#2110,#308);
#177=LINE('',#2112,#309);
#178=LINE('',#2119,#310);
#179=LINE('',#2120,#311);
#180=LINE('',#2127,#312);
#181=LINE('',#2129,#313);
#182=LINE('',#2154,#314);
#183=LINE('',#2155,#315);
#184=LINE('',#2160,#316);
#185=LINE('',#2161,#317);
#186=LINE('',#2166,#318);
#187=LINE('',#2167,#319);
#188=LINE('',#2172,#320);
#189=LINE('',#2173,#321);
#190=LINE('',#2175,#322);
#191=LINE('',#2178,#323);
#192=LINE('',#2179,#324);
#193=LINE('',#2181,#325);
#194=LINE('',#2188,#326);
#195=LINE('',#2190,#327);
#196=LINE('',#2192,#328);
#197=LINE('',#2199,#329);
#198=LINE('',#2202,#330);
#199=LINE('',#2203,#331);
#200=LINE('',#2205,#332);
#201=LINE('',#2212,#333);
#202=LINE('',#2214,#334);
#203=LINE('',#2216,#335);
#204=LINE('',#2223,#336);
#205=LINE('',#2226,#337);
#206=LINE('',#2227,#338);
#207=LINE('',#2229,#339);
#208=LINE('',#2236,#340);
#209=LINE('',#2238,#341);
#210=LINE('',#2240,#342);
#211=LINE('',#2247,#343);
#212=LINE('',#2250,#344);
#213=LINE('',#2251,#345);
#214=LINE('',#2253,#346);
#215=LINE('',#2260,#347);
#216=LINE('',#2262,#348);
#217=LINE('',#2264,#349);
#218=VECTOR('',#1493,1.);
#219=VECTOR('',#1496,1.);
#220=VECTOR('',#1501,1.);
#221=VECTOR('',#1504,1.);
#222=VECTOR('',#1509,1.);
#223=VECTOR('',#1512,1.);
#224=VECTOR('',#1517,1.);
#225=VECTOR('',#1520,1.);
#226=VECTOR('',#1523,1.);
#227=VECTOR('',#1526,1.);
#228=VECTOR('',#1529,1.);
#229=VECTOR('',#1532,1.);
#230=VECTOR('',#1535,1.);
#231=VECTOR('',#1538,1.);
#232=VECTOR('',#1541,1.);
#233=VECTOR('',#1542,1.);
#234=VECTOR('',#1543,1.);
#235=VECTOR('',#1544,1.);
#236=VECTOR('',#1545,1.);
#237=VECTOR('',#1546,1.);
#238=VECTOR('',#1549,1.);
#239=VECTOR('',#1550,1.);
#240=VECTOR('',#1551,1.);
#241=VECTOR('',#1552,1.);
#242=VECTOR('',#1553,1.);
#243=VECTOR('',#1556,1.);
#244=VECTOR('',#1557,1.);
#245=VECTOR('',#1558,1.);
#246=VECTOR('',#1561,1.);
#247=VECTOR('',#1562,1.);
#248=VECTOR('',#1565,1.);
#249=VECTOR('',#1566,1.);
#250=VECTOR('',#1569,1.);
#251=VECTOR('',#1570,1.);
#252=VECTOR('',#1573,1.);
#253=VECTOR('',#1574,1.);
#254=VECTOR('',#1575,1.);
#255=VECTOR('',#1576,1.);
#256=VECTOR('',#1577,1.);
#257=VECTOR('',#1578,1.);
#258=VECTOR('',#1579,1.);
#259=VECTOR('',#1580,1.);
#260=VECTOR('',#1581,1.);
#261=VECTOR('',#1582,1.);
#262=VECTOR('',#1585,1.);
#263=VECTOR('',#1586,1.);
#264=VECTOR('',#1587,1.);
#265=VECTOR('',#1588,1.);
#266=VECTOR('',#1589,1.);
#267=VECTOR('',#1590,1.);
#268=VECTOR('',#1593,1.);
#269=VECTOR('',#1594,1.);
#270=VECTOR('',#1595,1.);
#271=VECTOR('',#1598,1.);
#272=VECTOR('',#1599,1.);
#273=VECTOR('',#1602,1.);
#274=VECTOR('',#1603,1.);
#275=VECTOR('',#1606,1.);
#276=VECTOR('',#1607,1.);
#277=VECTOR('',#1608,1.);
#278=VECTOR('',#1609,1.);
#279=VECTOR('',#1610,1.);
#280=VECTOR('',#1611,1.);
#281=VECTOR('',#1614,1.);
#282=VECTOR('',#1617,1.);
#283=VECTOR('',#1620,1.);
#284=VECTOR('',#1625,1.);
#285=VECTOR('',#1626,1.);
#286=VECTOR('',#1629,1.);
#287=VECTOR('',#1634,1.);
#288=VECTOR('',#1637,1.);
#289=VECTOR('',#1638,1.);
#290=VECTOR('',#1641,1.);
#291=VECTOR('',#1642,1.);
#292=VECTOR('',#1649,1.);
#293=VECTOR('',#1652,1.);
#294=VECTOR('',#1655,1.);
#295=VECTOR('',#1656,1.);
#296=VECTOR('',#1657,1.);
#297=VECTOR('',#1660,1.);
#298=VECTOR('',#1661,1.);
#299=VECTOR('',#1664,1.);
#300=VECTOR('',#1665,1.);
#301=VECTOR('',#1666,1.);
#302=VECTOR('',#1669,1.);
#303=VECTOR('',#1670,1.);
#304=VECTOR('',#1673,1.);
#305=VECTOR('',#1674,1.);
#306=VECTOR('',#1675,1.);
#307=VECTOR('',#1678,1.);
#308=VECTOR('',#1679,1.);
#309=VECTOR('',#1682,1.);
#310=VECTOR('',#1683,1.);
#311=VECTOR('',#1684,1.);
#312=VECTOR('',#1687,1.);
#313=VECTOR('',#1688,1.);
#314=VECTOR('',#1733,1.);
#315=VECTOR('',#1734,1.);
#316=VECTOR('',#1739,1.);
#317=VECTOR('',#1740,1.);
#318=VECTOR('',#1745,1.);
#319=VECTOR('',#1746,1.);
#320=VECTOR('',#1751,1.);
#321=VECTOR('',#1752,1.);
#322=VECTOR('',#1755,1.);
#323=VECTOR('',#1756,1.);
#324=VECTOR('',#1757,1.);
#325=VECTOR('',#1758,1.);
#326=VECTOR('',#1761,1.);
#327=VECTOR('',#1762,1.);
#328=VECTOR('',#1763,1.);
#329=VECTOR('',#1766,1.);
#330=VECTOR('',#1767,1.);
#331=VECTOR('',#1768,1.);
#332=VECTOR('',#1769,1.);
#333=VECTOR('',#1772,1.);
#334=VECTOR('',#1773,1.);
#335=VECTOR('',#1774,1.);
#336=VECTOR('',#1777,1.);
#337=VECTOR('',#1778,1.);
#338=VECTOR('',#1779,1.);
#339=VECTOR('',#1780,1.);
#340=VECTOR('',#1783,1.);
#341=VECTOR('',#1784,1.);
#342=VECTOR('',#1785,1.);
#343=VECTOR('',#1788,1.);
#344=VECTOR('',#1789,1.);
#345=VECTOR('',#1790,1.);
#346=VECTOR('',#1791,1.);
#347=VECTOR('',#1794,1.);
#348=VECTOR('',#1795,1.);
#349=VECTOR('',#1796,1.);
#350=ORIENTED_EDGE('',*,*,#734,.F.);
#351=ORIENTED_EDGE('',*,*,#735,.F.);
#352=ORIENTED_EDGE('',*,*,#736,.T.);
#353=ORIENTED_EDGE('',*,*,#737,.T.);
#354=ORIENTED_EDGE('',*,*,#738,.F.);
#355=ORIENTED_EDGE('',*,*,#739,.F.);
#356=ORIENTED_EDGE('',*,*,#740,.T.);
#357=ORIENTED_EDGE('',*,*,#741,.T.);
#358=ORIENTED_EDGE('',*,*,#742,.F.);
#359=ORIENTED_EDGE('',*,*,#743,.F.);
#360=ORIENTED_EDGE('',*,*,#744,.T.);
#361=ORIENTED_EDGE('',*,*,#745,.T.);
#362=ORIENTED_EDGE('',*,*,#746,.F.);
#363=ORIENTED_EDGE('',*,*,#747,.F.);
#364=ORIENTED_EDGE('',*,*,#748,.T.);
#365=ORIENTED_EDGE('',*,*,#749,.T.);
#366=ORIENTED_EDGE('',*,*,#750,.F.);
#367=ORIENTED_EDGE('',*,*,#751,.T.);
#368=ORIENTED_EDGE('',*,*,#752,.T.);
#369=ORIENTED_EDGE('',*,*,#753,.F.);
#370=ORIENTED_EDGE('',*,*,#754,.T.);
#371=ORIENTED_EDGE('',*,*,#755,.F.);
#372=ORIENTED_EDGE('',*,*,#756,.F.);
#373=ORIENTED_EDGE('',*,*,#757,.T.);
#374=ORIENTED_EDGE('',*,*,#758,.F.);
#375=ORIENTED_EDGE('',*,*,#759,.T.);
#376=ORIENTED_EDGE('',*,*,#760,.T.);
#377=ORIENTED_EDGE('',*,*,#761,.F.);
#378=ORIENTED_EDGE('',*,*,#762,.F.);
#379=ORIENTED_EDGE('',*,*,#763,.T.);
#380=ORIENTED_EDGE('',*,*,#764,.T.);
#381=ORIENTED_EDGE('',*,*,#765,.F.);
#382=ORIENTED_EDGE('',*,*,#766,.F.);
#383=ORIENTED_EDGE('',*,*,#767,.T.);
#384=ORIENTED_EDGE('',*,*,#768,.F.);
#385=ORIENTED_EDGE('',*,*,#769,.F.);
#386=ORIENTED_EDGE('',*,*,#770,.T.);
#387=ORIENTED_EDGE('',*,*,#771,.T.);
#388=ORIENTED_EDGE('',*,*,#772,.F.);
#389=ORIENTED_EDGE('',*,*,#773,.F.);
#390=ORIENTED_EDGE('',*,*,#774,.T.);
#391=ORIENTED_EDGE('',*,*,#775,.T.);
#392=ORIENTED_EDGE('',*,*,#776,.T.);
#393=ORIENTED_EDGE('',*,*,#777,.F.);
#394=ORIENTED_EDGE('',*,*,#778,.T.);
#395=ORIENTED_EDGE('',*,*,#779,.F.);
#396=ORIENTED_EDGE('',*,*,#780,.F.);
#397=ORIENTED_EDGE('',*,*,#781,.T.);
#398=ORIENTED_EDGE('',*,*,#782,.F.);
#399=ORIENTED_EDGE('',*,*,#783,.F.);
#400=ORIENTED_EDGE('',*,*,#784,.T.);
#401=ORIENTED_EDGE('',*,*,#785,.F.);
#402=ORIENTED_EDGE('',*,*,#786,.T.);
#403=ORIENTED_EDGE('',*,*,#748,.F.);
#404=ORIENTED_EDGE('',*,*,#787,.F.);
#405=ORIENTED_EDGE('',*,*,#788,.T.);
#406=ORIENTED_EDGE('',*,*,#744,.F.);
#407=ORIENTED_EDGE('',*,*,#789,.T.);
#408=ORIENTED_EDGE('',*,*,#790,.T.);
#409=ORIENTED_EDGE('',*,*,#740,.F.);
#410=ORIENTED_EDGE('',*,*,#791,.T.);
#411=ORIENTED_EDGE('',*,*,#792,.T.);
#412=ORIENTED_EDGE('',*,*,#736,.F.);
#413=ORIENTED_EDGE('',*,*,#793,.T.);
#414=ORIENTED_EDGE('',*,*,#794,.F.);
#415=ORIENTED_EDGE('',*,*,#795,.T.);
#416=ORIENTED_EDGE('',*,*,#796,.T.);
#417=ORIENTED_EDGE('',*,*,#769,.T.);
#418=ORIENTED_EDGE('',*,*,#797,.F.);
#419=ORIENTED_EDGE('',*,*,#798,.F.);
#420=ORIENTED_EDGE('',*,*,#799,.T.);
#421=ORIENTED_EDGE('',*,*,#773,.T.);
#422=ORIENTED_EDGE('',*,*,#800,.F.);
#423=ORIENTED_EDGE('',*,*,#759,.F.);
#424=ORIENTED_EDGE('',*,*,#801,.F.);
#425=ORIENTED_EDGE('',*,*,#802,.T.);
#426=ORIENTED_EDGE('',*,*,#803,.T.);
#427=ORIENTED_EDGE('',*,*,#762,.T.);
#428=ORIENTED_EDGE('',*,*,#804,.F.);
#429=ORIENTED_EDGE('',*,*,#805,.F.);
#430=ORIENTED_EDGE('',*,*,#801,.T.);
#431=ORIENTED_EDGE('',*,*,#761,.T.);
#432=ORIENTED_EDGE('',*,*,#806,.F.);
#433=ORIENTED_EDGE('',*,*,#807,.F.);
#434=ORIENTED_EDGE('',*,*,#804,.T.);
#435=ORIENTED_EDGE('',*,*,#808,.F.);
#436=ORIENTED_EDGE('',*,*,#809,.T.);
#437=ORIENTED_EDGE('',*,*,#810,.T.);
#438=ORIENTED_EDGE('',*,*,#763,.F.);
#439=ORIENTED_EDGE('',*,*,#811,.F.);
#440=ORIENTED_EDGE('',*,*,#812,.T.);
#441=ORIENTED_EDGE('',*,*,#813,.T.);
#442=ORIENTED_EDGE('',*,*,#767,.F.);
#443=ORIENTED_EDGE('',*,*,#774,.F.);
#444=ORIENTED_EDGE('',*,*,#799,.F.);
#445=ORIENTED_EDGE('',*,*,#814,.T.);
#446=ORIENTED_EDGE('',*,*,#811,.T.);
#447=ORIENTED_EDGE('',*,*,#768,.T.);
#448=ORIENTED_EDGE('',*,*,#813,.F.);
#449=ORIENTED_EDGE('',*,*,#815,.F.);
#450=ORIENTED_EDGE('',*,*,#797,.T.);
#451=ORIENTED_EDGE('',*,*,#760,.F.);
#452=ORIENTED_EDGE('',*,*,#803,.F.);
#453=ORIENTED_EDGE('',*,*,#816,.T.);
#454=ORIENTED_EDGE('',*,*,#806,.T.);
#455=ORIENTED_EDGE('',*,*,#812,.F.);
#456=ORIENTED_EDGE('',*,*,#814,.F.);
#457=ORIENTED_EDGE('',*,*,#798,.T.);
#458=ORIENTED_EDGE('',*,*,#815,.T.);
#459=ORIENTED_EDGE('',*,*,#802,.F.);
#460=ORIENTED_EDGE('',*,*,#805,.T.);
#461=ORIENTED_EDGE('',*,*,#807,.T.);
#462=ORIENTED_EDGE('',*,*,#816,.F.);
#463=ORIENTED_EDGE('',*,*,#772,.T.);
#464=ORIENTED_EDGE('',*,*,#817,.F.);
#465=ORIENTED_EDGE('',*,*,#818,.T.);
#466=ORIENTED_EDGE('',*,*,#800,.T.);
#467=ORIENTED_EDGE('',*,*,#771,.F.);
#468=ORIENTED_EDGE('',*,*,#819,.F.);
#469=ORIENTED_EDGE('',*,*,#820,.T.);
#470=ORIENTED_EDGE('',*,*,#817,.T.);
#471=ORIENTED_EDGE('',*,*,#770,.F.);
#472=ORIENTED_EDGE('',*,*,#796,.F.);
#473=ORIENTED_EDGE('',*,*,#821,.T.);
#474=ORIENTED_EDGE('',*,*,#819,.T.);
#475=ORIENTED_EDGE('',*,*,#764,.F.);
#476=ORIENTED_EDGE('',*,*,#810,.F.);
#477=ORIENTED_EDGE('',*,*,#822,.T.);
#478=ORIENTED_EDGE('',*,*,#823,.T.);
#479=ORIENTED_EDGE('',*,*,#766,.T.);
#480=ORIENTED_EDGE('',*,*,#824,.F.);
#481=ORIENTED_EDGE('',*,*,#825,.T.);
#482=ORIENTED_EDGE('',*,*,#808,.T.);
#483=ORIENTED_EDGE('',*,*,#765,.T.);
#484=ORIENTED_EDGE('',*,*,#823,.F.);
#485=ORIENTED_EDGE('',*,*,#826,.T.);
#486=ORIENTED_EDGE('',*,*,#824,.T.);
#487=ORIENTED_EDGE('',*,*,#827,.T.);
#488=ORIENTED_EDGE('',*,*,#828,.T.);
#489=ORIENTED_EDGE('',*,*,#829,.F.);
#490=ORIENTED_EDGE('',*,*,#830,.T.);
#491=ORIENTED_EDGE('',*,*,#831,.T.);
#492=ORIENTED_EDGE('',*,*,#750,.T.);
#493=ORIENTED_EDGE('',*,*,#832,.F.);
#494=ORIENTED_EDGE('',*,*,#793,.F.);
#495=ORIENTED_EDGE('',*,*,#735,.T.);
#496=ORIENTED_EDGE('',*,*,#833,.T.);
#497=ORIENTED_EDGE('',*,*,#752,.F.);
#498=ORIENTED_EDGE('',*,*,#834,.T.);
#499=ORIENTED_EDGE('',*,*,#835,.F.);
#500=ORIENTED_EDGE('',*,*,#836,.T.);
#501=ORIENTED_EDGE('',*,*,#737,.F.);
#502=ORIENTED_EDGE('',*,*,#794,.T.);
#503=ORIENTED_EDGE('',*,*,#832,.T.);
#504=ORIENTED_EDGE('',*,*,#837,.T.);
#505=ORIENTED_EDGE('',*,*,#838,.T.);
#506=ORIENTED_EDGE('',*,*,#753,.T.);
#507=ORIENTED_EDGE('',*,*,#839,.F.);
#508=ORIENTED_EDGE('',*,*,#791,.F.);
#509=ORIENTED_EDGE('',*,*,#739,.T.);
#510=ORIENTED_EDGE('',*,*,#840,.F.);
#511=ORIENTED_EDGE('',*,*,#755,.T.);
#512=ORIENTED_EDGE('',*,*,#841,.T.);
#513=ORIENTED_EDGE('',*,*,#842,.F.);
#514=ORIENTED_EDGE('',*,*,#843,.F.);
#515=ORIENTED_EDGE('',*,*,#741,.F.);
#516=ORIENTED_EDGE('',*,*,#792,.F.);
#517=ORIENTED_EDGE('',*,*,#839,.T.);
#518=ORIENTED_EDGE('',*,*,#844,.T.);
#519=ORIENTED_EDGE('',*,*,#845,.T.);
#520=ORIENTED_EDGE('',*,*,#756,.T.);
#521=ORIENTED_EDGE('',*,*,#846,.F.);
#522=ORIENTED_EDGE('',*,*,#789,.F.);
#523=ORIENTED_EDGE('',*,*,#743,.T.);
#524=ORIENTED_EDGE('',*,*,#847,.T.);
#525=ORIENTED_EDGE('',*,*,#758,.T.);
#526=ORIENTED_EDGE('',*,*,#848,.T.);
#527=ORIENTED_EDGE('',*,*,#849,.F.);
#528=ORIENTED_EDGE('',*,*,#850,.F.);
#529=ORIENTED_EDGE('',*,*,#745,.F.);
#530=ORIENTED_EDGE('',*,*,#790,.F.);
#531=ORIENTED_EDGE('',*,*,#846,.T.);
#532=ORIENTED_EDGE('',*,*,#851,.T.);
#533=ORIENTED_EDGE('',*,*,#852,.T.);
#534=ORIENTED_EDGE('',*,*,#827,.F.);
#535=ORIENTED_EDGE('',*,*,#853,.F.);
#536=ORIENTED_EDGE('',*,*,#787,.T.);
#537=ORIENTED_EDGE('',*,*,#747,.T.);
#538=ORIENTED_EDGE('',*,*,#854,.T.);
#539=ORIENTED_EDGE('',*,*,#829,.T.);
#540=ORIENTED_EDGE('',*,*,#855,.T.);
#541=ORIENTED_EDGE('',*,*,#856,.F.);
#542=ORIENTED_EDGE('',*,*,#857,.F.);
#543=ORIENTED_EDGE('',*,*,#749,.F.);
#544=ORIENTED_EDGE('',*,*,#788,.F.);
#545=ORIENTED_EDGE('',*,*,#853,.T.);
#546=ORIENTED_EDGE('',*,*,#856,.T.);
#547=ORIENTED_EDGE('',*,*,#858,.T.);
#548=ORIENTED_EDGE('',*,*,#851,.F.);
#549=ORIENTED_EDGE('',*,*,#859,.T.);
#550=ORIENTED_EDGE('',*,*,#857,.T.);
#551=ORIENTED_EDGE('',*,*,#859,.F.);
#552=ORIENTED_EDGE('',*,*,#854,.F.);
#553=ORIENTED_EDGE('',*,*,#746,.T.);
#554=ORIENTED_EDGE('',*,*,#849,.T.);
#555=ORIENTED_EDGE('',*,*,#860,.T.);
#556=ORIENTED_EDGE('',*,*,#844,.F.);
#557=ORIENTED_EDGE('',*,*,#861,.T.);
#558=ORIENTED_EDGE('',*,*,#742,.T.);
#559=ORIENTED_EDGE('',*,*,#850,.T.);
#560=ORIENTED_EDGE('',*,*,#861,.F.);
#561=ORIENTED_EDGE('',*,*,#847,.F.);
#562=ORIENTED_EDGE('',*,*,#842,.T.);
#563=ORIENTED_EDGE('',*,*,#862,.T.);
#564=ORIENTED_EDGE('',*,*,#837,.F.);
#565=ORIENTED_EDGE('',*,*,#863,.T.);
#566=ORIENTED_EDGE('',*,*,#843,.T.);
#567=ORIENTED_EDGE('',*,*,#863,.F.);
#568=ORIENTED_EDGE('',*,*,#840,.T.);
#569=ORIENTED_EDGE('',*,*,#738,.T.);
#570=ORIENTED_EDGE('',*,*,#835,.T.);
#571=ORIENTED_EDGE('',*,*,#864,.T.);
#572=ORIENTED_EDGE('',*,*,#830,.F.);
#573=ORIENTED_EDGE('',*,*,#865,.T.);
#574=ORIENTED_EDGE('',*,*,#734,.T.);
#575=ORIENTED_EDGE('',*,*,#836,.F.);
#576=ORIENTED_EDGE('',*,*,#865,.F.);
#577=ORIENTED_EDGE('',*,*,#833,.F.);
#578=ORIENTED_EDGE('',*,*,#845,.F.);
#579=ORIENTED_EDGE('',*,*,#860,.F.);
#580=ORIENTED_EDGE('',*,*,#848,.F.);
#581=ORIENTED_EDGE('',*,*,#757,.F.);
#582=ORIENTED_EDGE('',*,*,#838,.F.);
#583=ORIENTED_EDGE('',*,*,#862,.F.);
#584=ORIENTED_EDGE('',*,*,#841,.F.);
#585=ORIENTED_EDGE('',*,*,#754,.F.);
#586=ORIENTED_EDGE('',*,*,#831,.F.);
#587=ORIENTED_EDGE('',*,*,#864,.F.);
#588=ORIENTED_EDGE('',*,*,#834,.F.);
#589=ORIENTED_EDGE('',*,*,#751,.F.);
#590=ORIENTED_EDGE('',*,*,#852,.F.);
#591=ORIENTED_EDGE('',*,*,#858,.F.);
#592=ORIENTED_EDGE('',*,*,#855,.F.);
#593=ORIENTED_EDGE('',*,*,#828,.F.);
#594=ORIENTED_EDGE('',*,*,#866,.T.);
#595=ORIENTED_EDGE('',*,*,#867,.F.);
#596=ORIENTED_EDGE('',*,*,#775,.F.);
#597=ORIENTED_EDGE('',*,*,#868,.T.);
#598=ORIENTED_EDGE('',*,*,#869,.T.);
#599=ORIENTED_EDGE('',*,*,#870,.F.);
#600=ORIENTED_EDGE('',*,*,#778,.F.);
#601=ORIENTED_EDGE('',*,*,#871,.T.);
#602=ORIENTED_EDGE('',*,*,#872,.T.);
#603=ORIENTED_EDGE('',*,*,#873,.F.);
#604=ORIENTED_EDGE('',*,*,#781,.F.);
#605=ORIENTED_EDGE('',*,*,#874,.T.);
#606=ORIENTED_EDGE('',*,*,#875,.T.);
#607=ORIENTED_EDGE('',*,*,#876,.F.);
#608=ORIENTED_EDGE('',*,*,#784,.F.);
#609=ORIENTED_EDGE('',*,*,#877,.T.);
#610=ORIENTED_EDGE('',*,*,#878,.F.);
#611=ORIENTED_EDGE('',*,*,#879,.F.);
#612=ORIENTED_EDGE('',*,*,#868,.F.);
#613=ORIENTED_EDGE('',*,*,#777,.T.);
#614=ORIENTED_EDGE('',*,*,#880,.T.);
#615=ORIENTED_EDGE('',*,*,#881,.F.);
#616=ORIENTED_EDGE('',*,*,#882,.F.);
#617=ORIENTED_EDGE('',*,*,#883,.T.);
#618=ORIENTED_EDGE('',*,*,#880,.F.);
#619=ORIENTED_EDGE('',*,*,#776,.F.);
#620=ORIENTED_EDGE('',*,*,#867,.T.);
#621=ORIENTED_EDGE('',*,*,#884,.F.);
#622=ORIENTED_EDGE('',*,*,#885,.T.);
#623=ORIENTED_EDGE('',*,*,#886,.F.);
#624=ORIENTED_EDGE('',*,*,#887,.F.);
#625=ORIENTED_EDGE('',*,*,#888,.T.);
#626=ORIENTED_EDGE('',*,*,#871,.F.);
#627=ORIENTED_EDGE('',*,*,#780,.T.);
#628=ORIENTED_EDGE('',*,*,#889,.T.);
#629=ORIENTED_EDGE('',*,*,#890,.F.);
#630=ORIENTED_EDGE('',*,*,#891,.F.);
#631=ORIENTED_EDGE('',*,*,#892,.F.);
#632=ORIENTED_EDGE('',*,*,#889,.F.);
#633=ORIENTED_EDGE('',*,*,#779,.T.);
#634=ORIENTED_EDGE('',*,*,#870,.T.);
#635=ORIENTED_EDGE('',*,*,#893,.T.);
#636=ORIENTED_EDGE('',*,*,#894,.T.);
#637=ORIENTED_EDGE('',*,*,#895,.F.);
#638=ORIENTED_EDGE('',*,*,#896,.F.);
#639=ORIENTED_EDGE('',*,*,#897,.F.);
#640=ORIENTED_EDGE('',*,*,#874,.F.);
#641=ORIENTED_EDGE('',*,*,#783,.T.);
#642=ORIENTED_EDGE('',*,*,#898,.T.);
#643=ORIENTED_EDGE('',*,*,#899,.F.);
#644=ORIENTED_EDGE('',*,*,#900,.F.);
#645=ORIENTED_EDGE('',*,*,#901,.F.);
#646=ORIENTED_EDGE('',*,*,#898,.F.);
#647=ORIENTED_EDGE('',*,*,#782,.T.);
#648=ORIENTED_EDGE('',*,*,#873,.T.);
#649=ORIENTED_EDGE('',*,*,#902,.T.);
#650=ORIENTED_EDGE('',*,*,#903,.T.);
#651=ORIENTED_EDGE('',*,*,#904,.F.);
#652=ORIENTED_EDGE('',*,*,#905,.F.);
#653=ORIENTED_EDGE('',*,*,#906,.F.);
#654=ORIENTED_EDGE('',*,*,#877,.F.);
#655=ORIENTED_EDGE('',*,*,#786,.F.);
#656=ORIENTED_EDGE('',*,*,#907,.T.);
#657=ORIENTED_EDGE('',*,*,#908,.T.);
#658=ORIENTED_EDGE('',*,*,#909,.F.);
#659=ORIENTED_EDGE('',*,*,#910,.F.);
#660=ORIENTED_EDGE('',*,*,#907,.F.);
#661=ORIENTED_EDGE('',*,*,#785,.T.);
#662=ORIENTED_EDGE('',*,*,#876,.T.);
#663=ORIENTED_EDGE('',*,*,#911,.T.);
#664=ORIENTED_EDGE('',*,*,#912,.T.);
#665=ORIENTED_EDGE('',*,*,#913,.F.);
#666=ORIENTED_EDGE('',*,*,#912,.F.);
#667=ORIENTED_EDGE('',*,*,#914,.F.);
#668=ORIENTED_EDGE('',*,*,#905,.T.);
#669=ORIENTED_EDGE('',*,*,#915,.F.);
#670=ORIENTED_EDGE('',*,*,#911,.F.);
#671=ORIENTED_EDGE('',*,*,#875,.F.);
#672=ORIENTED_EDGE('',*,*,#906,.T.);
#673=ORIENTED_EDGE('',*,*,#914,.T.);
#674=ORIENTED_EDGE('',*,*,#903,.F.);
#675=ORIENTED_EDGE('',*,*,#916,.F.);
#676=ORIENTED_EDGE('',*,*,#896,.T.);
#677=ORIENTED_EDGE('',*,*,#917,.F.);
#678=ORIENTED_EDGE('',*,*,#872,.F.);
#679=ORIENTED_EDGE('',*,*,#897,.T.);
#680=ORIENTED_EDGE('',*,*,#916,.T.);
#681=ORIENTED_EDGE('',*,*,#902,.F.);
#682=ORIENTED_EDGE('',*,*,#894,.F.);
#683=ORIENTED_EDGE('',*,*,#918,.F.);
#684=ORIENTED_EDGE('',*,*,#887,.T.);
#685=ORIENTED_EDGE('',*,*,#919,.F.);
#686=ORIENTED_EDGE('',*,*,#893,.F.);
#687=ORIENTED_EDGE('',*,*,#869,.F.);
#688=ORIENTED_EDGE('',*,*,#888,.F.);
#689=ORIENTED_EDGE('',*,*,#918,.T.);
#690=ORIENTED_EDGE('',*,*,#885,.F.);
#691=ORIENTED_EDGE('',*,*,#920,.F.);
#692=ORIENTED_EDGE('',*,*,#878,.T.);
#693=ORIENTED_EDGE('',*,*,#921,.F.);
#694=ORIENTED_EDGE('',*,*,#866,.F.);
#695=ORIENTED_EDGE('',*,*,#879,.T.);
#696=ORIENTED_EDGE('',*,*,#920,.T.);
#697=ORIENTED_EDGE('',*,*,#884,.T.);
#698=ORIENTED_EDGE('',*,*,#900,.T.);
#699=ORIENTED_EDGE('',*,*,#922,.T.);
#700=ORIENTED_EDGE('',*,*,#904,.T.);
#701=ORIENTED_EDGE('',*,*,#917,.T.);
#702=ORIENTED_EDGE('',*,*,#891,.T.);
#703=ORIENTED_EDGE('',*,*,#923,.T.);
#704=ORIENTED_EDGE('',*,*,#895,.T.);
#705=ORIENTED_EDGE('',*,*,#919,.T.);
#706=ORIENTED_EDGE('',*,*,#882,.T.);
#707=ORIENTED_EDGE('',*,*,#924,.T.);
#708=ORIENTED_EDGE('',*,*,#886,.T.);
#709=ORIENTED_EDGE('',*,*,#921,.T.);
#710=ORIENTED_EDGE('',*,*,#909,.T.);
#711=ORIENTED_EDGE('',*,*,#925,.T.);
#712=ORIENTED_EDGE('',*,*,#913,.T.);
#713=ORIENTED_EDGE('',*,*,#915,.T.);
#714=ORIENTED_EDGE('',*,*,#908,.F.);
#715=ORIENTED_EDGE('',*,*,#910,.T.);
#716=ORIENTED_EDGE('',*,*,#925,.F.);
#717=ORIENTED_EDGE('',*,*,#924,.F.);
#718=ORIENTED_EDGE('',*,*,#881,.T.);
#719=ORIENTED_EDGE('',*,*,#883,.F.);
#720=ORIENTED_EDGE('',*,*,#923,.F.);
#721=ORIENTED_EDGE('',*,*,#890,.T.);
#722=ORIENTED_EDGE('',*,*,#892,.T.);
#723=ORIENTED_EDGE('',*,*,#922,.F.);
#724=ORIENTED_EDGE('',*,*,#899,.T.);
#725=ORIENTED_EDGE('',*,*,#901,.T.);
#726=ORIENTED_EDGE('',*,*,#795,.F.);
#727=ORIENTED_EDGE('',*,*,#818,.F.);
#728=ORIENTED_EDGE('',*,*,#820,.F.);
#729=ORIENTED_EDGE('',*,*,#821,.F.);
#730=ORIENTED_EDGE('',*,*,#822,.F.);
#731=ORIENTED_EDGE('',*,*,#809,.F.);
#732=ORIENTED_EDGE('',*,*,#825,.F.);
#733=ORIENTED_EDGE('',*,*,#826,.F.);
#734=EDGE_CURVE('',#926,#927,#1054,.T.);
#735=EDGE_CURVE('',#928,#926,#86,.T.);
#736=EDGE_CURVE('',#928,#929,#1055,.T.);
#737=EDGE_CURVE('',#929,#927,#87,.T.);
#738=EDGE_CURVE('',#930,#931,#1056,.T.);
#739=EDGE_CURVE('',#932,#930,#88,.T.);
#740=EDGE_CURVE('',#932,#933,#1057,.T.);
#741=EDGE_CURVE('',#933,#931,#89,.T.);
#742=EDGE_CURVE('',#934,#935,#1058,.T.);
#743=EDGE_CURVE('',#936,#934,#90,.T.);
#744=EDGE_CURVE('',#936,#937,#1059,.T.);
#745=EDGE_CURVE('',#937,#935,#91,.T.);
#746=EDGE_CURVE('',#938,#939,#1060,.T.);
#747=EDGE_CURVE('',#940,#938,#92,.T.);
#748=EDGE_CURVE('',#940,#941,#1061,.T.);
#749=EDGE_CURVE('',#941,#939,#93,.T.);
#750=EDGE_CURVE('',#942,#943,#94,.T.);
#751=EDGE_CURVE('',#942,#944,#1062,.F.);
#752=EDGE_CURVE('',#944,#943,#95,.T.);
#753=EDGE_CURVE('',#945,#946,#96,.T.);
#754=EDGE_CURVE('',#945,#947,#1063,.F.);
#755=EDGE_CURVE('',#946,#947,#97,.T.);
#756=EDGE_CURVE('',#948,#949,#98,.T.);
#757=EDGE_CURVE('',#948,#950,#1064,.F.);
#758=EDGE_CURVE('',#949,#950,#99,.T.);
#759=EDGE_CURVE('',#951,#952,#100,.T.);
#760=EDGE_CURVE('',#952,#953,#101,.T.);
#761=EDGE_CURVE('',#954,#953,#102,.T.);
#762=EDGE_CURVE('',#951,#954,#103,.T.);
#763=EDGE_CURVE('',#955,#956,#104,.T.);
#764=EDGE_CURVE('',#956,#957,#105,.T.);
#765=EDGE_CURVE('',#958,#957,#1065,.T.);
#766=EDGE_CURVE('',#959,#958,#106,.T.);
#767=EDGE_CURVE('',#959,#960,#107,.T.);
#768=EDGE_CURVE('',#961,#960,#108,.T.);
#769=EDGE_CURVE('',#962,#961,#109,.T.);
#770=EDGE_CURVE('',#962,#963,#110,.T.);
#771=EDGE_CURVE('',#963,#964,#1066,.T.);
#772=EDGE_CURVE('',#965,#964,#111,.T.);
#773=EDGE_CURVE('',#966,#965,#112,.T.);
#774=EDGE_CURVE('',#966,#955,#113,.T.);
#775=EDGE_CURVE('',#967,#968,#1067,.T.);
#776=EDGE_CURVE('',#968,#969,#114,.T.);
#777=EDGE_CURVE('',#967,#969,#115,.T.);
#778=EDGE_CURVE('',#970,#971,#1068,.T.);
#779=EDGE_CURVE('',#972,#971,#116,.T.);
#780=EDGE_CURVE('',#970,#972,#117,.T.);
#781=EDGE_CURVE('',#973,#974,#1069,.T.);
#782=EDGE_CURVE('',#975,#974,#118,.T.);
#783=EDGE_CURVE('',#973,#975,#119,.T.);
#784=EDGE_CURVE('',#976,#977,#1070,.T.);
#785=EDGE_CURVE('',#978,#977,#120,.T.);
#786=EDGE_CURVE('',#978,#976,#121,.T.);
#787=EDGE_CURVE('',#979,#940,#122,.T.);
#788=EDGE_CURVE('',#979,#941,#123,.T.);
#789=EDGE_CURVE('',#936,#980,#124,.T.);
#790=EDGE_CURVE('',#980,#937,#125,.T.);
#791=EDGE_CURVE('',#932,#981,#126,.T.);
#792=EDGE_CURVE('',#981,#933,#127,.T.);
#793=EDGE_CURVE('',#928,#982,#128,.T.);
#794=EDGE_CURVE('',#929,#982,#129,.T.);
#795=EDGE_CURVE('',#983,#984,#130,.T.);
#796=EDGE_CURVE('',#984,#962,#131,.T.);
#797=EDGE_CURVE('',#985,#961,#132,.T.);
#798=EDGE_CURVE('',#986,#985,#133,.T.);
#799=EDGE_CURVE('',#986,#966,#134,.T.);
#800=EDGE_CURVE('',#983,#965,#135,.T.);
#801=EDGE_CURVE('',#987,#951,#136,.T.);
#802=EDGE_CURVE('',#987,#988,#137,.T.);
#803=EDGE_CURVE('',#988,#952,#138,.T.);
#804=EDGE_CURVE('',#989,#954,#139,.T.);
#805=EDGE_CURVE('',#987,#989,#140,.T.);
#806=EDGE_CURVE('',#990,#953,#141,.T.);
#807=EDGE_CURVE('',#989,#990,#142,.T.);
#808=EDGE_CURVE('',#991,#959,#143,.T.);
#809=EDGE_CURVE('',#991,#992,#144,.T.);
#810=EDGE_CURVE('',#992,#956,#145,.T.);
#811=EDGE_CURVE('',#993,#955,#146,.T.);
#812=EDGE_CURVE('',#993,#994,#147,.T.);
#813=EDGE_CURVE('',#994,#960,#148,.T.);
#814=EDGE_CURVE('',#986,#993,#149,.T.);
#815=EDGE_CURVE('',#985,#994,#150,.T.);
#816=EDGE_CURVE('',#988,#990,#151,.T.);
#817=EDGE_CURVE('',#995,#964,#152,.T.);
#818=EDGE_CURVE('',#995,#983,#153,.T.);
#819=EDGE_CURVE('',#996,#963,#154,.T.);
#820=EDGE_CURVE('',#996,#995,#36,.T.);
#821=EDGE_CURVE('',#984,#996,#155,.T.);
#822=EDGE_CURVE('',#992,#997,#156,.F.);
#823=EDGE_CURVE('',#997,#957,#157,.T.);
#824=EDGE_CURVE('',#998,#958,#158,.T.);
#825=EDGE_CURVE('',#998,#991,#159,.F.);
#826=EDGE_CURVE('',#997,#998,#37,.F.);
#827=EDGE_CURVE('',#999,#1000,#160,.T.);
#828=EDGE_CURVE('',#1000,#1001,#1071,.F.);
#829=EDGE_CURVE('',#999,#1001,#161,.T.);
#830=EDGE_CURVE('',#1002,#1003,#162,.T.);
#831=EDGE_CURVE('',#1003,#942,#20,.T.);
#832=EDGE_CURVE('',#982,#943,#163,.T.);
#833=EDGE_CURVE('',#926,#1002,#164,.T.);
#834=EDGE_CURVE('',#944,#1004,#21,.T.);
#835=EDGE_CURVE('',#1005,#1004,#165,.T.);
#836=EDGE_CURVE('',#1005,#927,#166,.T.);
#837=EDGE_CURVE('',#1006,#1007,#167,.T.);
#838=EDGE_CURVE('',#1007,#945,#22,.T.);
#839=EDGE_CURVE('',#981,#946,#168,.T.);
#840=EDGE_CURVE('',#1006,#930,#169,.T.);
#841=EDGE_CURVE('',#947,#1008,#23,.T.);
#842=EDGE_CURVE('',#1009,#1008,#170,.T.);
#843=EDGE_CURVE('',#931,#1009,#171,.T.);
#844=EDGE_CURVE('',#1010,#1011,#172,.T.);
#845=EDGE_CURVE('',#1011,#948,#24,.T.);
#846=EDGE_CURVE('',#980,#949,#173,.T.);
#847=EDGE_CURVE('',#934,#1010,#174,.T.);
#848=EDGE_CURVE('',#950,#1012,#25,.T.);
#849=EDGE_CURVE('',#1013,#1012,#175,.T.);
#850=EDGE_CURVE('',#935,#1013,#176,.T.);
#851=EDGE_CURVE('',#1014,#1015,#177,.T.);
#852=EDGE_CURVE('',#1015,#1000,#26,.T.);
#853=EDGE_CURVE('',#979,#999,#178,.T.);
#854=EDGE_CURVE('',#938,#1014,#179,.T.);
#855=EDGE_CURVE('',#1001,#1016,#27,.T.);
#856=EDGE_CURVE('',#1017,#1016,#180,.T.);
#857=EDGE_CURVE('',#939,#1017,#181,.T.);
#858=EDGE_CURVE('',#1016,#1015,#1072,.T.);
#859=EDGE_CURVE('',#1014,#1017,#1073,.T.);
#860=EDGE_CURVE('',#1012,#1011,#1074,.T.);
#861=EDGE_CURVE('',#1010,#1013,#1075,.T.);
#862=EDGE_CURVE('',#1008,#1007,#1076,.T.);
#863=EDGE_CURVE('',#1006,#1009,#1077,.T.);
#864=EDGE_CURVE('',#1004,#1003,#1078,.T.);
#865=EDGE_CURVE('',#1002,#1005,#1079,.T.);
#866=EDGE_CURVE('',#1018,#1019,#1080,.T.);
#867=EDGE_CURVE('',#968,#1019,#182,.T.);
#868=EDGE_CURVE('',#967,#1018,#183,.T.);
#869=EDGE_CURVE('',#1020,#1021,#1081,.T.);
#870=EDGE_CURVE('',#971,#1021,#184,.T.);
#871=EDGE_CURVE('',#970,#1020,#185,.T.);
#872=EDGE_CURVE('',#1022,#1023,#1082,.T.);
#873=EDGE_CURVE('',#974,#1023,#186,.T.);
#874=EDGE_CURVE('',#973,#1022,#187,.T.);
#875=EDGE_CURVE('',#1024,#1025,#1083,.T.);
#876=EDGE_CURVE('',#977,#1025,#188,.T.);
#877=EDGE_CURVE('',#976,#1024,#189,.T.);
#878=EDGE_CURVE('',#1026,#1027,#190,.T.);
#879=EDGE_CURVE('',#1018,#1026,#191,.T.);
#880=EDGE_CURVE('',#969,#1028,#192,.T.);
#881=EDGE_CURVE('',#1029,#1028,#193,.T.);
#882=EDGE_CURVE('',#1027,#1029,#28,.T.);
#883=EDGE_CURVE('',#1030,#1028,#194,.T.);
#884=EDGE_CURVE('',#1031,#1019,#195,.T.);
#885=EDGE_CURVE('',#1031,#1032,#196,.T.);
#886=EDGE_CURVE('',#1030,#1032,#29,.T.);
#887=EDGE_CURVE('',#1033,#1034,#197,.T.);
#888=EDGE_CURVE('',#1033,#1020,#198,.T.);
#889=EDGE_CURVE('',#972,#1035,#199,.T.);
#890=EDGE_CURVE('',#1036,#1035,#200,.T.);
#891=EDGE_CURVE('',#1034,#1036,#30,.T.);
#892=EDGE_CURVE('',#1035,#1037,#201,.T.);
#893=EDGE_CURVE('',#1021,#1038,#202,.T.);
#894=EDGE_CURVE('',#1038,#1039,#203,.T.);
#895=EDGE_CURVE('',#1037,#1039,#31,.T.);
#896=EDGE_CURVE('',#1040,#1041,#204,.T.);
#897=EDGE_CURVE('',#1022,#1040,#205,.T.);
#898=EDGE_CURVE('',#975,#1042,#206,.T.);
#899=EDGE_CURVE('',#1043,#1042,#207,.T.);
#900=EDGE_CURVE('',#1041,#1043,#32,.T.);
#901=EDGE_CURVE('',#1042,#1044,#208,.T.);
#902=EDGE_CURVE('',#1023,#1045,#209,.T.);
#903=EDGE_CURVE('',#1045,#1046,#210,.T.);
#904=EDGE_CURVE('',#1044,#1046,#33,.T.);
#905=EDGE_CURVE('',#1047,#1048,#211,.T.);
#906=EDGE_CURVE('',#1024,#1047,#212,.T.);
#907=EDGE_CURVE('',#978,#1049,#213,.T.);
#908=EDGE_CURVE('',#1049,#1050,#214,.T.);
#909=EDGE_CURVE('',#1048,#1050,#34,.T.);
#910=EDGE_CURVE('',#1049,#1051,#215,.T.);
#911=EDGE_CURVE('',#1025,#1052,#216,.T.);
#912=EDGE_CURVE('',#1052,#1053,#217,.T.);
#913=EDGE_CURVE('',#1051,#1053,#35,.T.);
#914=EDGE_CURVE('',#1047,#1052,#1084,.T.);
#915=EDGE_CURVE('',#1053,#1048,#1085,.T.);
#916=EDGE_CURVE('',#1040,#1045,#1086,.T.);
#917=EDGE_CURVE('',#1046,#1041,#1087,.T.);
#918=EDGE_CURVE('',#1033,#1038,#1088,.T.);
#919=EDGE_CURVE('',#1039,#1034,#1089,.T.);
#920=EDGE_CURVE('',#1026,#1031,#1090,.T.);
#921=EDGE_CURVE('',#1032,#1027,#1091,.T.);
#922=EDGE_CURVE('',#1043,#1044,#1092,.F.);
#923=EDGE_CURVE('',#1036,#1037,#1093,.F.);
#924=EDGE_CURVE('',#1029,#1030,#1094,.F.);
#925=EDGE_CURVE('',#1050,#1051,#1095,.F.);
#926=VERTEX_POINT('',#1860);
#927=VERTEX_POINT('',#1861);
#928=VERTEX_POINT('',#1863);
#929=VERTEX_POINT('',#1865);
#930=VERTEX_POINT('',#1869);
#931=VERTEX_POINT('',#1870);
#932=VERTEX_POINT('',#1872);
#933=VERTEX_POINT('',#1874);
#934=VERTEX_POINT('',#1878);
#935=VERTEX_POINT('',#1879);
#936=VERTEX_POINT('',#1881);
#937=VERTEX_POINT('',#1883);
#938=VERTEX_POINT('',#1887);
#939=VERTEX_POINT('',#1888);
#940=VERTEX_POINT('',#1890);
#941=VERTEX_POINT('',#1892);
#942=VERTEX_POINT('',#1896);
#943=VERTEX_POINT('',#1897);
#944=VERTEX_POINT('',#1899);
#945=VERTEX_POINT('',#1903);
#946=VERTEX_POINT('',#1904);
#947=VERTEX_POINT('',#1906);
#948=VERTEX_POINT('',#1910);
#949=VERTEX_POINT('',#1911);
#950=VERTEX_POINT('',#1913);
#951=VERTEX_POINT('',#1917);
#952=VERTEX_POINT('',#1918);
#953=VERTEX_POINT('',#1920);
#954=VERTEX_POINT('',#1922);
#955=VERTEX_POINT('',#1925);
#956=VERTEX_POINT('',#1926);
#957=VERTEX_POINT('',#1928);
#958=VERTEX_POINT('',#1930);
#959=VERTEX_POINT('',#1932);
#960=VERTEX_POINT('',#1934);
#961=VERTEX_POINT('',#1936);
#962=VERTEX_POINT('',#1938);
#963=VERTEX_POINT('',#1940);
#964=VERTEX_POINT('',#1942);
#965=VERTEX_POINT('',#1944);
#966=VERTEX_POINT('',#1946);
#967=VERTEX_POINT('',#1949);
#968=VERTEX_POINT('',#1950);
#969=VERTEX_POINT('',#1952);
#970=VERTEX_POINT('',#1955);
#971=VERTEX_POINT('',#1956);
#972=VERTEX_POINT('',#1958);
#973=VERTEX_POINT('',#1961);
#974=VERTEX_POINT('',#1962);
#975=VERTEX_POINT('',#1964);
#976=VERTEX_POINT('',#1967);
#977=VERTEX_POINT('',#1968);
#978=VERTEX_POINT('',#1970);
#979=VERTEX_POINT('',#1973);
#980=VERTEX_POINT('',#1976);
#981=VERTEX_POINT('',#1979);
#982=VERTEX_POINT('',#1982);
#983=VERTEX_POINT('',#1986);
#984=VERTEX_POINT('',#1987);
#985=VERTEX_POINT('',#1990);
#986=VERTEX_POINT('',#1992);
#987=VERTEX_POINT('',#1997);
#988=VERTEX_POINT('',#1999);
#989=VERTEX_POINT('',#2003);
#990=VERTEX_POINT('',#2007);
#991=VERTEX_POINT('',#2011);
#992=VERTEX_POINT('',#2013);
#993=VERTEX_POINT('',#2016);
#994=VERTEX_POINT('',#2018);
#995=VERTEX_POINT('',#2029);
#996=VERTEX_POINT('',#2033);
#997=VERTEX_POINT('',#2039);
#998=VERTEX_POINT('',#2043);
#999=VERTEX_POINT('',#2049);
#1000=VERTEX_POINT('',#2050);
#1001=VERTEX_POINT('',#2052);
#1002=VERTEX_POINT('',#2056);
#1003=VERTEX_POINT('',#2057);
#1004=VERTEX_POINT('',#2069);
#1005=VERTEX_POINT('',#2071);
#1006=VERTEX_POINT('',#2075);
#1007=VERTEX_POINT('',#2076);
#1008=VERTEX_POINT('',#2088);
#1009=VERTEX_POINT('',#2090);
#1010=VERTEX_POINT('',#2094);
#1011=VERTEX_POINT('',#2095);
#1012=VERTEX_POINT('',#2107);
#1013=VERTEX_POINT('',#2109);
#1014=VERTEX_POINT('',#2113);
#1015=VERTEX_POINT('',#2114);
#1016=VERTEX_POINT('',#2126);
#1017=VERTEX_POINT('',#2128);
#1018=VERTEX_POINT('',#2152);
#1019=VERTEX_POINT('',#2153);
#1020=VERTEX_POINT('',#2158);
#1021=VERTEX_POINT('',#2159);
#1022=VERTEX_POINT('',#2164);
#1023=VERTEX_POINT('',#2165);
#1024=VERTEX_POINT('',#2170);
#1025=VERTEX_POINT('',#2171);
#1026=VERTEX_POINT('',#2176);
#1027=VERTEX_POINT('',#2177);
#1028=VERTEX_POINT('',#2180);
#1029=VERTEX_POINT('',#2182);
#1030=VERTEX_POINT('',#2189);
#1031=VERTEX_POINT('',#2191);
#1032=VERTEX_POINT('',#2193);
#1033=VERTEX_POINT('',#2200);
#1034=VERTEX_POINT('',#2201);
#1035=VERTEX_POINT('',#2204);
#1036=VERTEX_POINT('',#2206);
#1037=VERTEX_POINT('',#2213);
#1038=VERTEX_POINT('',#2215);
#1039=VERTEX_POINT('',#2217);
#1040=VERTEX_POINT('',#2224);
#1041=VERTEX_POINT('',#2225);
#1042=VERTEX_POINT('',#2228);
#1043=VERTEX_POINT('',#2230);
#1044=VERTEX_POINT('',#2237);
#1045=VERTEX_POINT('',#2239);
#1046=VERTEX_POINT('',#2241);
#1047=VERTEX_POINT('',#2248);
#1048=VERTEX_POINT('',#2249);
#1049=VERTEX_POINT('',#2252);
#1050=VERTEX_POINT('',#2254);
#1051=VERTEX_POINT('',#2261);
#1052=VERTEX_POINT('',#2263);
#1053=VERTEX_POINT('',#2265);
#1054=CIRCLE('',#1370,0.001);
#1055=CIRCLE('',#1371,0.001);
#1056=CIRCLE('',#1373,0.001);
#1057=CIRCLE('',#1374,0.001);
#1058=CIRCLE('',#1376,0.001);
#1059=CIRCLE('',#1377,0.001);
#1060=CIRCLE('',#1379,0.001);
#1061=CIRCLE('',#1380,0.001);
#1062=CIRCLE('',#1382,0.0009);
#1063=CIRCLE('',#1384,0.0009);
#1064=CIRCLE('',#1386,0.0009);
#1065=CIRCLE('',#1388,0.0015);
#1066=CIRCLE('',#1389,0.0015);
#1067=CIRCLE('',#1390,0.001);
#1068=CIRCLE('',#1391,0.001);
#1069=CIRCLE('',#1392,0.001);
#1070=CIRCLE('',#1393,0.001);
#1071=CIRCLE('',#1412,0.0009);
#1072=CIRCLE('',#1422,0.0011);
#1073=CIRCLE('',#1423,0.0011);
#1074=CIRCLE('',#1426,0.0011);
#1075=CIRCLE('',#1427,0.0011);
#1076=CIRCLE('',#1430,0.0011);
#1077=CIRCLE('',#1431,0.0011);
#1078=CIRCLE('',#1434,0.0011);
#1079=CIRCLE('',#1435,0.0011);
#1080=CIRCLE('',#1442,0.001);
#1081=CIRCLE('',#1444,0.001);
#1082=CIRCLE('',#1446,0.001);
#1083=CIRCLE('',#1448,0.001);
#1084=CIRCLE('',#1458,0.0011);
#1085=CIRCLE('',#1459,0.0011);
#1086=CIRCLE('',#1462,0.0011);
#1087=CIRCLE('',#1463,0.0011);
#1088=CIRCLE('',#1466,0.0011);
#1089=CIRCLE('',#1467,0.0011);
#1090=CIRCLE('',#1470,0.0011);
#1091=CIRCLE('',#1471,0.0011);
#1092=CIRCLE('',#1474,0.0009);
#1093=CIRCLE('',#1476,0.0009);
#1094=CIRCLE('',#1478,0.0009);
#1095=CIRCLE('',#1480,0.0009);
#1096=EDGE_LOOP('',(#350,#351,#352,#353));
#1097=EDGE_LOOP('',(#354,#355,#356,#357));
#1098=EDGE_LOOP('',(#358,#359,#360,#361));
#1099=EDGE_LOOP('',(#362,#363,#364,#365));
#1100=EDGE_LOOP('',(#366,#367,#368));
#1101=EDGE_LOOP('',(#369,#370,#371));
#1102=EDGE_LOOP('',(#372,#373,#374));
#1103=EDGE_LOOP('',(#375,#376,#377,#378));
#1104=EDGE_LOOP('',(#379,#380,#381,#382,#383,#384,#385,#386,#387,#388,#389,
#390));
#1105=EDGE_LOOP('',(#391,#392,#393));
#1106=EDGE_LOOP('',(#394,#395,#396));
#1107=EDGE_LOOP('',(#397,#398,#399));
#1108=EDGE_LOOP('',(#400,#401,#402));
#1109=EDGE_LOOP('',(#403,#404,#405));
#1110=EDGE_LOOP('',(#406,#407,#408));
#1111=EDGE_LOOP('',(#409,#410,#411));
#1112=EDGE_LOOP('',(#412,#413,#414));
#1113=EDGE_LOOP('',(#415,#416,#417,#418,#419,#420,#421,#422));
#1114=EDGE_LOOP('',(#423,#424,#425,#426));
#1115=EDGE_LOOP('',(#427,#428,#429,#430));
#1116=EDGE_LOOP('',(#431,#432,#433,#434));
#1117=EDGE_LOOP('',(#435,#436,#437,#438,#439,#440,#441,#442));
#1118=EDGE_LOOP('',(#443,#444,#445,#446));
#1119=EDGE_LOOP('',(#447,#448,#449,#450));
#1120=EDGE_LOOP('',(#451,#452,#453,#454));
#1121=EDGE_LOOP('',(#455,#456,#457,#458));
#1122=EDGE_LOOP('',(#459,#460,#461,#462));
#1123=EDGE_LOOP('',(#463,#464,#465,#466));
#1124=EDGE_LOOP('',(#467,#468,#469,#470));
#1125=EDGE_LOOP('',(#471,#472,#473,#474));
#1126=EDGE_LOOP('',(#475,#476,#477,#478));
#1127=EDGE_LOOP('',(#479,#480,#481,#482));
#1128=EDGE_LOOP('',(#483,#484,#485,#486));
#1129=EDGE_LOOP('',(#487,#488,#489));
#1130=EDGE_LOOP('',(#490,#491,#492,#493,#494,#495,#496));
#1131=EDGE_LOOP('',(#497,#498,#499,#500,#501,#502,#503));
#1132=EDGE_LOOP('',(#504,#505,#506,#507,#508,#509,#510));
#1133=EDGE_LOOP('',(#511,#512,#513,#514,#515,#516,#517));
#1134=EDGE_LOOP('',(#518,#519,#520,#521,#522,#523,#524));
#1135=EDGE_LOOP('',(#525,#526,#527,#528,#529,#530,#531));
#1136=EDGE_LOOP('',(#532,#533,#534,#535,#536,#537,#538));
#1137=EDGE_LOOP('',(#539,#540,#541,#542,#543,#544,#545));
#1138=EDGE_LOOP('',(#546,#547,#548,#549));
#1139=EDGE_LOOP('',(#550,#551,#552,#553));
#1140=EDGE_LOOP('',(#554,#555,#556,#557));
#1141=EDGE_LOOP('',(#558,#559,#560,#561));
#1142=EDGE_LOOP('',(#562,#563,#564,#565));
#1143=EDGE_LOOP('',(#566,#567,#568,#569));
#1144=EDGE_LOOP('',(#570,#571,#572,#573));
#1145=EDGE_LOOP('',(#574,#575,#576,#577));
#1146=EDGE_LOOP('',(#578,#579,#580,#581));
#1147=EDGE_LOOP('',(#582,#583,#584,#585));
#1148=EDGE_LOOP('',(#586,#587,#588,#589));
#1149=EDGE_LOOP('',(#590,#591,#592,#593));
#1150=EDGE_LOOP('',(#594,#595,#596,#597));
#1151=EDGE_LOOP('',(#598,#599,#600,#601));
#1152=EDGE_LOOP('',(#602,#603,#604,#605));
#1153=EDGE_LOOP('',(#606,#607,#608,#609));
#1154=EDGE_LOOP('',(#610,#611,#612,#613,#614,#615,#616));
#1155=EDGE_LOOP('',(#617,#618,#619,#620,#621,#622,#623));
#1156=EDGE_LOOP('',(#624,#625,#626,#627,#628,#629,#630));
#1157=EDGE_LOOP('',(#631,#632,#633,#634,#635,#636,#637));
#1158=EDGE_LOOP('',(#638,#639,#640,#641,#642,#643,#644));
#1159=EDGE_LOOP('',(#645,#646,#647,#648,#649,#650,#651));
#1160=EDGE_LOOP('',(#652,#653,#654,#655,#656,#657,#658));
#1161=EDGE_LOOP('',(#659,#660,#661,#662,#663,#664,#665));
#1162=EDGE_LOOP('',(#666,#667,#668,#669));
#1163=EDGE_LOOP('',(#670,#671,#672,#673));
#1164=EDGE_LOOP('',(#674,#675,#676,#677));
#1165=EDGE_LOOP('',(#678,#679,#680,#681));
#1166=EDGE_LOOP('',(#682,#683,#684,#685));
#1167=EDGE_LOOP('',(#686,#687,#688,#689));
#1168=EDGE_LOOP('',(#690,#691,#692,#693));
#1169=EDGE_LOOP('',(#694,#695,#696,#697));
#1170=EDGE_LOOP('',(#698,#699,#700,#701));
#1171=EDGE_LOOP('',(#702,#703,#704,#705));
#1172=EDGE_LOOP('',(#706,#707,#708,#709));
#1173=EDGE_LOOP('',(#710,#711,#712,#713));
#1174=EDGE_LOOP('',(#714,#715,#716));
#1175=EDGE_LOOP('',(#717,#718,#719));
#1176=EDGE_LOOP('',(#720,#721,#722));
#1177=EDGE_LOOP('',(#723,#724,#725));
#1178=EDGE_LOOP('',(#726,#727,#728,#729));
#1179=EDGE_LOOP('',(#730,#731,#732,#733));
#1180=FACE_BOUND('',#1096,.T.);
#1181=FACE_BOUND('',#1097,.T.);
#1182=FACE_BOUND('',#1098,.T.);
#1183=FACE_BOUND('',#1099,.T.);
#1184=FACE_BOUND('',#1100,.T.);
#1185=FACE_BOUND('',#1101,.T.);
#1186=FACE_BOUND('',#1102,.T.);
#1187=FACE_BOUND('',#1103,.T.);
#1188=FACE_BOUND('',#1104,.T.);
#1189=FACE_BOUND('',#1105,.T.);
#1190=FACE_BOUND('',#1106,.T.);
#1191=FACE_BOUND('',#1107,.T.);
#1192=FACE_BOUND('',#1108,.T.);
#1193=FACE_BOUND('',#1109,.T.);
#1194=FACE_BOUND('',#1110,.T.);
#1195=FACE_BOUND('',#1111,.T.);
#1196=FACE_BOUND('',#1112,.T.);
#1197=FACE_BOUND('',#1113,.T.);
#1198=FACE_BOUND('',#1114,.T.);
#1199=FACE_BOUND('',#1115,.T.);
#1200=FACE_BOUND('',#1116,.T.);
#1201=FACE_BOUND('',#1117,.T.);
#1202=FACE_BOUND('',#1118,.T.);
#1203=FACE_BOUND('',#1119,.T.);
#1204=FACE_BOUND('',#1120,.T.);
#1205=FACE_BOUND('',#1121,.T.);
#1206=FACE_BOUND('',#1122,.T.);
#1207=FACE_BOUND('',#1123,.T.);
#1208=FACE_BOUND('',#1124,.T.);
#1209=FACE_BOUND('',#1125,.T.);
#1210=FACE_BOUND('',#1126,.T.);
#1211=FACE_BOUND('',#1127,.T.);
#1212=FACE_BOUND('',#1128,.T.);
#1213=FACE_BOUND('',#1129,.T.);
#1214=FACE_BOUND('',#1130,.T.);
#1215=FACE_BOUND('',#1131,.T.);
#1216=FACE_BOUND('',#1132,.T.);
#1217=FACE_BOUND('',#1133,.T.);
#1218=FACE_BOUND('',#1134,.T.);
#1219=FACE_BOUND('',#1135,.T.);
#1220=FACE_BOUND('',#1136,.T.);
#1221=FACE_BOUND('',#1137,.T.);
#1222=FACE_BOUND('',#1138,.T.);
#1223=FACE_BOUND('',#1139,.T.);
#1224=FACE_BOUND('',#1140,.T.);
#1225=FACE_BOUND('',#1141,.T.);
#1226=FACE_BOUND('',#1142,.T.);
#1227=FACE_BOUND('',#1143,.T.);
#1228=FACE_BOUND('',#1144,.T.);
#1229=FACE_BOUND('',#1145,.T.);
#1230=FACE_BOUND('',#1146,.T.);
#1231=FACE_BOUND('',#1147,.T.);
#1232=FACE_BOUND('',#1148,.T.);
#1233=FACE_BOUND('',#1149,.T.);
#1234=FACE_BOUND('',#1150,.T.);
#1235=FACE_BOUND('',#1151,.T.);
#1236=FACE_BOUND('',#1152,.T.);
#1237=FACE_BOUND('',#1153,.T.);
#1238=FACE_BOUND('',#1154,.T.);
#1239=FACE_BOUND('',#1155,.T.);
#1240=FACE_BOUND('',#1156,.T.);
#1241=FACE_BOUND('',#1157,.T.);
#1242=FACE_BOUND('',#1158,.T.);
#1243=FACE_BOUND('',#1159,.T.);
#1244=FACE_BOUND('',#1160,.T.);
#1245=FACE_BOUND('',#1161,.T.);
#1246=FACE_BOUND('',#1162,.T.);
#1247=FACE_BOUND('',#1163,.T.);
#1248=FACE_BOUND('',#1164,.T.);
#1249=FACE_BOUND('',#1165,.T.);
#1250=FACE_BOUND('',#1166,.T.);
#1251=FACE_BOUND('',#1167,.T.);
#1252=FACE_BOUND('',#1168,.T.);
#1253=FACE_BOUND('',#1169,.T.);
#1254=FACE_BOUND('',#1170,.T.);
#1255=FACE_BOUND('',#1171,.T.);
#1256=FACE_BOUND('',#1172,.T.);
#1257=FACE_BOUND('',#1173,.T.);
#1258=FACE_BOUND('',#1174,.T.);
#1259=FACE_BOUND('',#1175,.T.);
#1260=FACE_BOUND('',#1176,.T.);
#1261=FACE_BOUND('',#1177,.T.);
#1262=FACE_BOUND('',#1178,.T.);
#1263=FACE_BOUND('',#1179,.T.);
#1264=CYLINDRICAL_SURFACE('',#1369,0.001);
#1265=CYLINDRICAL_SURFACE('',#1372,0.001);
#1266=CYLINDRICAL_SURFACE('',#1375,0.001);
#1267=CYLINDRICAL_SURFACE('',#1378,0.001);
#1268=CYLINDRICAL_SURFACE('',#1404,0.0015);
#1269=CYLINDRICAL_SURFACE('',#1409,0.0015);
#1270=CYLINDRICAL_SURFACE('',#1421,0.0011);
#1271=CYLINDRICAL_SURFACE('',#1425,0.0011);
#1272=CYLINDRICAL_SURFACE('',#1429,0.0011);
#1273=CYLINDRICAL_SURFACE('',#1433,0.0011);
#1274=CYLINDRICAL_SURFACE('',#1441,0.001);
#1275=CYLINDRICAL_SURFACE('',#1443,0.001);
#1276=CYLINDRICAL_SURFACE('',#1445,0.001);
#1277=CYLINDRICAL_SURFACE('',#1447,0.001);
#1278=CYLINDRICAL_SURFACE('',#1457,0.0011);
#1279=CYLINDRICAL_SURFACE('',#1461,0.0011);
#1280=CYLINDRICAL_SURFACE('',#1465,0.0011);
#1281=CYLINDRICAL_SURFACE('',#1469,0.0011);
#1282=ADVANCED_FACE('',(#1180),#1264,.T.);
#1283=ADVANCED_FACE('',(#1181),#1265,.T.);
#1284=ADVANCED_FACE('',(#1182),#1266,.T.);
#1285=ADVANCED_FACE('',(#1183),#1267,.T.);
#1286=ADVANCED_FACE('',(#1184),#38,.F.);
#1287=ADVANCED_FACE('',(#1185),#39,.F.);
#1288=ADVANCED_FACE('',(#1186),#40,.F.);
#1289=ADVANCED_FACE('',(#1187,#1188,#1189,#1190,#1191,#1192,#1193,#1194,
#1195,#1196),#41,.F.);
#1290=ADVANCED_FACE('',(#1197),#42,.F.);
#1291=ADVANCED_FACE('',(#1198),#43,.T.);
#1292=ADVANCED_FACE('',(#1199),#44,.F.);
#1293=ADVANCED_FACE('',(#1200),#45,.F.);
#1294=ADVANCED_FACE('',(#1201),#46,.T.);
#1295=ADVANCED_FACE('',(#1202),#47,.T.);
#1296=ADVANCED_FACE('',(#1203),#48,.F.);
#1297=ADVANCED_FACE('',(#1204),#49,.T.);
#1298=ADVANCED_FACE('',(#1205,#1206),#50,.T.);
#1299=ADVANCED_FACE('',(#1207),#51,.F.);
#1300=ADVANCED_FACE('',(#1208),#1268,.T.);
#1301=ADVANCED_FACE('',(#1209),#52,.T.);
#1302=ADVANCED_FACE('',(#1210),#53,.T.);
#1303=ADVANCED_FACE('',(#1211),#54,.F.);
#1304=ADVANCED_FACE('',(#1212),#1269,.T.);
#1305=ADVANCED_FACE('',(#1213),#55,.F.);
#1306=ADVANCED_FACE('',(#1214),#56,.F.);
#1307=ADVANCED_FACE('',(#1215),#57,.T.);
#1308=ADVANCED_FACE('',(#1216),#58,.F.);
#1309=ADVANCED_FACE('',(#1217),#59,.F.);
#1310=ADVANCED_FACE('',(#1218),#60,.F.);
#1311=ADVANCED_FACE('',(#1219),#61,.F.);
#1312=ADVANCED_FACE('',(#1220),#62,.T.);
#1313=ADVANCED_FACE('',(#1221),#63,.F.);
#1314=ADVANCED_FACE('',(#1222),#1270,.T.);
#1315=ADVANCED_FACE('',(#1223),#64,.F.);
#1316=ADVANCED_FACE('',(#1224),#1271,.T.);
#1317=ADVANCED_FACE('',(#1225),#65,.F.);
#1318=ADVANCED_FACE('',(#1226),#1272,.T.);
#1319=ADVANCED_FACE('',(#1227),#66,.F.);
#1320=ADVANCED_FACE('',(#1228),#1273,.T.);
#1321=ADVANCED_FACE('',(#1229),#67,.F.);
#1322=ADVANCED_FACE('',(#1230),#12,.T.);
#1323=ADVANCED_FACE('',(#1231),#13,.T.);
#1324=ADVANCED_FACE('',(#1232),#14,.T.);
#1325=ADVANCED_FACE('',(#1233),#15,.T.);
#1326=ADVANCED_FACE('',(#1234),#1274,.T.);
#1327=ADVANCED_FACE('',(#1235),#1275,.T.);
#1328=ADVANCED_FACE('',(#1236),#1276,.T.);
#1329=ADVANCED_FACE('',(#1237),#1277,.T.);
#1330=ADVANCED_FACE('',(#1238),#68,.F.);
#1331=ADVANCED_FACE('',(#1239),#69,.T.);
#1332=ADVANCED_FACE('',(#1240),#70,.F.);
#1333=ADVANCED_FACE('',(#1241),#71,.F.);
#1334=ADVANCED_FACE('',(#1242),#72,.F.);
#1335=ADVANCED_FACE('',(#1243),#73,.F.);
#1336=ADVANCED_FACE('',(#1244),#74,.T.);
#1337=ADVANCED_FACE('',(#1245),#75,.F.);
#1338=ADVANCED_FACE('',(#1246),#1278,.T.);
#1339=ADVANCED_FACE('',(#1247),#76,.F.);
#1340=ADVANCED_FACE('',(#1248),#1279,.T.);
#1341=ADVANCED_FACE('',(#1249),#77,.F.);
#1342=ADVANCED_FACE('',(#1250),#1280,.T.);
#1343=ADVANCED_FACE('',(#1251),#78,.F.);
#1344=ADVANCED_FACE('',(#1252),#1281,.T.);
#1345=ADVANCED_FACE('',(#1253),#79,.F.);
#1346=ADVANCED_FACE('',(#1254),#16,.T.);
#1347=ADVANCED_FACE('',(#1255),#17,.T.);
#1348=ADVANCED_FACE('',(#1256),#18,.T.);
#1349=ADVANCED_FACE('',(#1257),#19,.T.);
#1350=ADVANCED_FACE('',(#1258),#80,.F.);
#1351=ADVANCED_FACE('',(#1259),#81,.F.);
#1352=ADVANCED_FACE('',(#1260),#82,.F.);
#1353=ADVANCED_FACE('',(#1261),#83,.F.);
#1354=ADVANCED_FACE('',(#1262),#84,.F.);
#1355=ADVANCED_FACE('',(#1263),#85,.T.);
#1356=CLOSED_SHELL('',(#1282,#1283,#1284,#1285,#1286,#1287,#1288,#1289,
#1290,#1291,#1292,#1293,#1294,#1295,#1296,#1297,#1298,#1299,#1300,#1301,
#1302,#1303,#1304,#1305,#1306,#1307,#1308,#1309,#1310,#1311,#1312,#1313,
#1314,#1315,#1316,#1317,#1318,#1319,#1320,#1321,#1322,#1323,#1324,#1325,
#1326,#1327,#1328,#1329,#1330,#1331,#1332,#1333,#1334,#1335,#1336,#1337,
#1338,#1339,#1340,#1341,#1342,#1343,#1344,#1345,#1346,#1347,#1348,#1349,
#1350,#1351,#1352,#1353,#1354,#1355));
#1357=STYLED_ITEM('',(#1358),#1365);
#1358=PRESENTATION_STYLE_ASSIGNMENT((#1359));
#1359=SURFACE_STYLE_USAGE(.BOTH.,#1360);
#1360=SURFACE_SIDE_STYLE('',(#1361));
#1361=SURFACE_STYLE_FILL_AREA(#1362);
#1362=FILL_AREA_STYLE('',(#1363));
#1363=FILL_AREA_STYLE_COLOUR('',#1364);
#1364=COLOUR_RGB('',0.250980392156863,0.250980392156863,0.250980392156863);
#1365=MANIFOLD_SOLID_BREP('Part 1',#1356);
#1366=SHAPE_DEFINITION_REPRESENTATION(#2306,#1367);
#1367=SHAPE_REPRESENTATION('Part 1',(#1368),#2301);
#1368=AXIS2_PLACEMENT_3D('',#1857,#1487,#1488);
#1369=AXIS2_PLACEMENT_3D('',#1858,#1489,#1490);
#1370=AXIS2_PLACEMENT_3D('',#1859,#1491,#1492);
#1371=AXIS2_PLACEMENT_3D('',#1864,#1494,#1495);
#1372=AXIS2_PLACEMENT_3D('',#1867,#1497,#1498);
#1373=AXIS2_PLACEMENT_3D('',#1868,#1499,#1500);
#1374=AXIS2_PLACEMENT_3D('',#1873,#1502,#1503);
#1375=AXIS2_PLACEMENT_3D('',#1876,#1505,#1506);
#1376=AXIS2_PLACEMENT_3D('',#1877,#1507,#1508);
#1377=AXIS2_PLACEMENT_3D('',#1882,#1510,#1511);
#1378=AXIS2_PLACEMENT_3D('',#1885,#1513,#1514);
#1379=AXIS2_PLACEMENT_3D('',#1886,#1515,#1516);
#1380=AXIS2_PLACEMENT_3D('',#1891,#1518,#1519);
#1381=AXIS2_PLACEMENT_3D('',#1894,#1521,#1522);
#1382=AXIS2_PLACEMENT_3D('',#1898,#1524,#1525);
#1383=AXIS2_PLACEMENT_3D('',#1901,#1527,#1528);
#1384=AXIS2_PLACEMENT_3D('',#1905,#1530,#1531);
#1385=AXIS2_PLACEMENT_3D('',#1908,#1533,#1534);
#1386=AXIS2_PLACEMENT_3D('',#1912,#1536,#1537);
#1387=AXIS2_PLACEMENT_3D('',#1915,#1539,#1540);
#1388=AXIS2_PLACEMENT_3D('',#1929,#1547,#1548);
#1389=AXIS2_PLACEMENT_3D('',#1941,#1554,#1555);
#1390=AXIS2_PLACEMENT_3D('',#1948,#1559,#1560);
#1391=AXIS2_PLACEMENT_3D('',#1954,#1563,#1564);
#1392=AXIS2_PLACEMENT_3D('',#1960,#1567,#1568);
#1393=AXIS2_PLACEMENT_3D('',#1966,#1571,#1572);
#1394=AXIS2_PLACEMENT_3D('',#1984,#1583,#1584);
#1395=AXIS2_PLACEMENT_3D('',#1995,#1591,#1592);
#1396=AXIS2_PLACEMENT_3D('',#2001,#1596,#1597);
#1397=AXIS2_PLACEMENT_3D('',#2005,#1600,#1601);
#1398=AXIS2_PLACEMENT_3D('',#2009,#1604,#1605);
#1399=AXIS2_PLACEMENT_3D('',#2020,#1612,#1613);
#1400=AXIS2_PLACEMENT_3D('',#2022,#1615,#1616);
#1401=AXIS2_PLACEMENT_3D('',#2024,#1618,#1619);
#1402=AXIS2_PLACEMENT_3D('',#2026,#1621,#1622);
#1403=AXIS2_PLACEMENT_3D('',#2027,#1623,#1624);
#1404=AXIS2_PLACEMENT_3D('',#2031,#1627,#1628);
#1405=AXIS2_PLACEMENT_3D('',#2034,#1630,#1631);
#1406=AXIS2_PLACEMENT_3D('',#2035,#1632,#1633);
#1407=AXIS2_PLACEMENT_3D('',#2037,#1635,#1636);
#1408=AXIS2_PLACEMENT_3D('',#2041,#1639,#1640);
#1409=AXIS2_PLACEMENT_3D('',#2045,#1643,#1644);
#1410=AXIS2_PLACEMENT_3D('',#2046,#1645,#1646);
#1411=AXIS2_PLACEMENT_3D('',#2047,#1647,#1648);
#1412=AXIS2_PLACEMENT_3D('',#2051,#1650,#1651);
#1413=AXIS2_PLACEMENT_3D('',#2054,#1653,#1654);
#1414=AXIS2_PLACEMENT_3D('',#2064,#1658,#1659);
#1415=AXIS2_PLACEMENT_3D('',#2073,#1662,#1663);
#1416=AXIS2_PLACEMENT_3D('',#2083,#1667,#1668);
#1417=AXIS2_PLACEMENT_3D('',#2092,#1671,#1672);
#1418=AXIS2_PLACEMENT_3D('',#2102,#1676,#1677);
#1419=AXIS2_PLACEMENT_3D('',#2111,#1680,#1681);
#1420=AXIS2_PLACEMENT_3D('',#2121,#1685,#1686);
#1421=AXIS2_PLACEMENT_3D('',#2130,#1689,#1690);
#1422=AXIS2_PLACEMENT_3D('',#2131,#1691,#1692);
#1423=AXIS2_PLACEMENT_3D('',#2132,#1693,#1694);
#1424=AXIS2_PLACEMENT_3D('',#2133,#1695,#1696);
#1425=AXIS2_PLACEMENT_3D('',#2134,#1697,#1698);
#1426=AXIS2_PLACEMENT_3D('',#2135,#1699,#1700);
#1427=AXIS2_PLACEMENT_3D('',#2136,#1701,#1702);
#1428=AXIS2_PLACEMENT_3D('',#2137,#1703,#1704);
#1429=AXIS2_PLACEMENT_3D('',#2138,#1705,#1706);
#1430=AXIS2_PLACEMENT_3D('',#2139,#1707,#1708);
#1431=AXIS2_PLACEMENT_3D('',#2140,#1709,#1710);
#1432=AXIS2_PLACEMENT_3D('',#2141,#1711,#1712);
#1433=AXIS2_PLACEMENT_3D('',#2142,#1713,#1714);
#1434=AXIS2_PLACEMENT_3D('',#2143,#1715,#1716);
#1435=AXIS2_PLACEMENT_3D('',#2144,#1717,#1718);
#1436=AXIS2_PLACEMENT_3D('',#2145,#1719,#1720);
#1437=AXIS2_PLACEMENT_3D('',#2146,#1721,#1722);
#1438=AXIS2_PLACEMENT_3D('',#2147,#1723,#1724);
#1439=AXIS2_PLACEMENT_3D('',#2148,#1725,#1726);
#1440=AXIS2_PLACEMENT_3D('',#2149,#1727,#1728);
#1441=AXIS2_PLACEMENT_3D('',#2150,#1729,#1730);
#1442=AXIS2_PLACEMENT_3D('',#2151,#1731,#1732);
#1443=AXIS2_PLACEMENT_3D('',#2156,#1735,#1736);
#1444=AXIS2_PLACEMENT_3D('',#2157,#1737,#1738);
#1445=AXIS2_PLACEMENT_3D('',#2162,#1741,#1742);
#1446=AXIS2_PLACEMENT_3D('',#2163,#1743,#1744);
#1447=AXIS2_PLACEMENT_3D('',#2168,#1747,#1748);
#1448=AXIS2_PLACEMENT_3D('',#2169,#1749,#1750);
#1449=AXIS2_PLACEMENT_3D('',#2174,#1753,#1754);
#1450=AXIS2_PLACEMENT_3D('',#2187,#1759,#1760);
#1451=AXIS2_PLACEMENT_3D('',#2198,#1764,#1765);
#1452=AXIS2_PLACEMENT_3D('',#2211,#1770,#1771);
#1453=AXIS2_PLACEMENT_3D('',#2222,#1775,#1776);
#1454=AXIS2_PLACEMENT_3D('',#2235,#1781,#1782);
#1455=AXIS2_PLACEMENT_3D('',#2246,#1786,#1787);
#1456=AXIS2_PLACEMENT_3D('',#2259,#1792,#1793);
#1457=AXIS2_PLACEMENT_3D('',#2270,#1797,#1798);
#1458=AXIS2_PLACEMENT_3D('',#2271,#1799,#1800);
#1459=AXIS2_PLACEMENT_3D('',#2272,#1801,#1802);
#1460=AXIS2_PLACEMENT_3D('',#2273,#1803,#1804);
#1461=AXIS2_PLACEMENT_3D('',#2274,#1805,#1806);
#1462=AXIS2_PLACEMENT_3D('',#2275,#1807,#1808);
#1463=AXIS2_PLACEMENT_3D('',#2276,#1809,#1810);
#1464=AXIS2_PLACEMENT_3D('',#2277,#1811,#1812);
#1465=AXIS2_PLACEMENT_3D('',#2278,#1813,#1814);
#1466=AXIS2_PLACEMENT_3D('',#2279,#1815,#1816);
#1467=AXIS2_PLACEMENT_3D('',#2280,#1817,#1818);
#1468=AXIS2_PLACEMENT_3D('',#2281,#1819,#1820);
#1469=AXIS2_PLACEMENT_3D('',#2282,#1821,#1822);
#1470=AXIS2_PLACEMENT_3D('',#2283,#1823,#1824);
#1471=AXIS2_PLACEMENT_3D('',#2284,#1825,#1826);
#1472=AXIS2_PLACEMENT_3D('',#2285,#1827,#1828);
#1473=AXIS2_PLACEMENT_3D('',#2286,#1829,#1830);
#1474=AXIS2_PLACEMENT_3D('',#2287,#1831,#1832);
#1475=AXIS2_PLACEMENT_3D('',#2288,#1833,#1834);
#1476=AXIS2_PLACEMENT_3D('',#2289,#1835,#1836);
#1477=AXIS2_PLACEMENT_3D('',#2290,#1837,#1838);
#1478=AXIS2_PLACEMENT_3D('',#2291,#1839,#1840);
#1479=AXIS2_PLACEMENT_3D('',#2292,#1841,#1842);
#1480=AXIS2_PLACEMENT_3D('',#2293,#1843,#1844);
#1481=AXIS2_PLACEMENT_3D('',#2294,#1845,#1846);
#1482=AXIS2_PLACEMENT_3D('',#2295,#1847,#1848);
#1483=AXIS2_PLACEMENT_3D('',#2296,#1849,#1850);
#1484=AXIS2_PLACEMENT_3D('',#2297,#1851,#1852);
#1485=AXIS2_PLACEMENT_3D('',#2298,#1853,#1854);
#1486=AXIS2_PLACEMENT_3D('',#2299,#1855,#1856);
#1487=DIRECTION('',(0.,0.,1.));
#1488=DIRECTION('',(1.,0.,0.));
#1489=DIRECTION('',(0.,0.,1.));
#1490=DIRECTION('',(1.,0.,0.));
#1491=DIRECTION('',(0.,0.,-1.));
#1492=DIRECTION('',(1.,0.,0.));
#1493=DIRECTION('',(0.,0.,-1.));
#1494=DIRECTION('',(0.,0.,-1.));
#1495=DIRECTION('',(1.,0.,0.));
#1496=DIRECTION('',(0.,0.,-1.));
#1497=DIRECTION('',(0.,0.,1.));
#1498=DIRECTION('',(1.,0.,0.));
#1499=DIRECTION('',(0.,0.,-1.));
#1500=DIRECTION('',(1.,0.,0.));
#1501=DIRECTION('',(0.,0.,-1.));
#1502=DIRECTION('',(0.,0.,-1.));
#1503=DIRECTION('',(1.,0.,0.));
#1504=DIRECTION('',(0.,0.,-1.));
#1505=DIRECTION('',(0.,0.,1.));
#1506=DIRECTION('',(1.,0.,0.));
#1507=DIRECTION('',(0.,0.,-1.));
#1508=DIRECTION('',(1.,0.,0.));
#1509=DIRECTION('',(0.,0.,-1.));
#1510=DIRECTION('',(0.,0.,-1.));
#1511=DIRECTION('',(1.,0.,0.));
#1512=DIRECTION('',(0.,0.,-1.));
#1513=DIRECTION('',(0.,0.,1.));
#1514=DIRECTION('',(1.,0.,0.));
#1515=DIRECTION('',(0.,0.,-1.));
#1516=DIRECTION('',(1.,0.,0.));
#1517=DIRECTION('',(0.,0.,-1.));
#1518=DIRECTION('',(0.,0.,-1.));
#1519=DIRECTION('',(1.,0.,0.));
#1520=DIRECTION('',(0.,0.,-1.));
#1521=DIRECTION('',(0.,0.,1.));
#1522=DIRECTION('',(1.,0.,0.));
#1523=DIRECTION('',(0.,1.,0.));
#1524=DIRECTION('',(0.,0.,1.));
#1525=DIRECTION('',(1.,0.,0.));
#1526=DIRECTION('',(1.,0.,0.));
#1527=DIRECTION('',(0.,0.,1.));
#1528=DIRECTION('',(1.,0.,0.));
#1529=DIRECTION('',(1.,0.,0.));
#1530=DIRECTION('',(0.,0.,1.));
#1531=DIRECTION('',(1.,0.,0.));
#1532=DIRECTION('',(0.,1.,0.));
#1533=DIRECTION('',(0.,0.,1.));
#1534=DIRECTION('',(1.,0.,0.));
#1535=DIRECTION('',(0.,-1.,0.));
#1536=DIRECTION('',(0.,0.,1.));
#1537=DIRECTION('',(1.,0.,0.));
#1538=DIRECTION('',(1.,0.,0.));
#1539=DIRECTION('',(0.,0.,1.));
#1540=DIRECTION('',(1.,0.,0.));
#1541=DIRECTION('',(-1.,8.37221754815062E-17,0.));
#1542=DIRECTION('',(0.,-1.,0.));
#1543=DIRECTION('',(-1.,1.67444350963012E-16,0.));
#1544=DIRECTION('',(0.,-1.,0.));
#1545=DIRECTION('',(-1.,1.93607530800983E-16,0.));
#1546=DIRECTION('',(0.,-1.,0.));
#1547=DIRECTION('',(0.,0.,1.));
#1548=DIRECTION('',(1.,0.,0.));
#1549=DIRECTION('',(0.,-1.,0.));
#1550=DIRECTION('',(-1.,1.93607530800983E-16,0.));
#1551=DIRECTION('',(-1.84153235241699E-16,-1.,0.));
#1552=DIRECTION('',(-1.,1.93607530800983E-16,0.));
#1553=DIRECTION('',(0.,1.,0.));
#1554=DIRECTION('',(0.,0.,-1.));
#1555=DIRECTION('',(1.,0.,0.));
#1556=DIRECTION('',(0.,1.,0.));
#1557=DIRECTION('',(-1.,1.93607530800983E-16,0.));
#1558=DIRECTION('',(0.,-1.,0.));
#1559=DIRECTION('',(0.,0.,1.));
#1560=DIRECTION('',(1.,0.,0.));
#1561=DIRECTION('',(1.,0.,0.));
#1562=DIRECTION('',(0.,-1.,0.));
#1563=DIRECTION('',(0.,0.,1.));
#1564=DIRECTION('',(1.,0.,0.));
#1565=DIRECTION('',(0.,-1.,0.));
#1566=DIRECTION('',(1.,0.,0.));
#1567=DIRECTION('',(0.,0.,1.));
#1568=DIRECTION('',(1.,0.,0.));
#1569=DIRECTION('',(1.,0.,0.));
#1570=DIRECTION('',(0.,1.,0.));
#1571=DIRECTION('',(0.,0.,1.));
#1572=DIRECTION('',(1.,0.,0.));
#1573=DIRECTION('',(0.,1.,0.));
#1574=DIRECTION('',(1.,0.,0.));
#1575=DIRECTION('',(1.,0.,0.));
#1576=DIRECTION('',(0.,-1.,0.));
#1577=DIRECTION('',(0.,-1.,0.));
#1578=DIRECTION('',(1.,0.,0.));
#1579=DIRECTION('',(1.,0.,0.));
#1580=DIRECTION('',(0.,1.,0.));
#1581=DIRECTION('',(0.,1.,0.));
#1582=DIRECTION('',(1.,0.,0.));
#1583=DIRECTION('',(-1.93607530800983E-16,-1.,0.));
#1584=DIRECTION('',(1.,-1.93607530800983E-16,0.));
#1585=DIRECTION('',(-1.,1.93607530800983E-16,0.));
#1586=DIRECTION('',(0.,0.,-1.));
#1587=DIRECTION('',(0.,0.,-1.));
#1588=DIRECTION('',(-1.,1.93607530800983E-16,0.));
#1589=DIRECTION('',(0.,0.,-1.));
#1590=DIRECTION('',(0.,0.,-1.));
#1591=DIRECTION('',(-8.37221754815062E-17,-1.,0.));
#1592=DIRECTION('',(1.,-8.37221754815062E-17,0.));
#1593=DIRECTION('',(0.,0.,-1.));
#1594=DIRECTION('',(-1.,8.37221754815062E-17,0.));
#1595=DIRECTION('',(0.,0.,-1.));
#1596=DIRECTION('',(1.,0.,0.));
#1597=DIRECTION('',(0.,0.,-1.));
#1598=DIRECTION('',(0.,0.,-1.));
#1599=DIRECTION('',(0.,-1.,0.));
#1600=DIRECTION('',(-1.67444350963012E-16,-1.,0.));
#1601=DIRECTION('',(1.,-1.67444350963012E-16,0.));
#1602=DIRECTION('',(0.,0.,-1.));
#1603=DIRECTION('',(-1.,1.67444350963012E-16,0.));
#1604=DIRECTION('',(-1.93607530800983E-16,-1.,0.));
#1605=DIRECTION('',(1.,-1.93607530800983E-16,0.));
#1606=DIRECTION('',(0.,0.,-1.));
#1607=DIRECTION('',(1.,-1.93607530800983E-16,0.));
#1608=DIRECTION('',(0.,0.,-1.));
#1609=DIRECTION('',(0.,0.,-1.));
#1610=DIRECTION('',(-1.,1.93607530800983E-16,0.));
#1611=DIRECTION('',(0.,0.,-1.));
#1612=DIRECTION('',(1.,0.,0.));
#1613=DIRECTION('',(0.,0.,-1.));
#1614=DIRECTION('',(0.,-1.,0.));
#1615=DIRECTION('',(1.,-1.84153235241699E-16,0.));
#1616=DIRECTION('',(1.84153235241699E-16,1.,0.));
#1617=DIRECTION('',(-1.84153235241699E-16,-1.,0.));
#1618=DIRECTION('',(1.,0.,0.));
#1619=DIRECTION('',(0.,0.,-1.));
#1620=DIRECTION('',(0.,-1.,0.));
#1621=DIRECTION('',(0.,0.,1.));
#1622=DIRECTION('',(1.,0.,0.));
#1623=DIRECTION('',(-1.,0.,0.));
#1624=DIRECTION('',(0.,0.,1.));
#1625=DIRECTION('',(0.,0.,-1.));
#1626=DIRECTION('',(0.,-0.707106781186548,0.707106781186548));
#1627=DIRECTION('',(0.,0.,-1.));
#1628=DIRECTION('',(-1.,0.,0.));
#1629=DIRECTION('',(0.,0.,-1.));
#1630=DIRECTION('',(-1.36901197918158E-16,-0.707106781186548,-0.707106781186547));
#1631=DIRECTION('',(1.36901197918158E-16,0.707106781186548,-0.707106781186548));
#1632=DIRECTION('',(-1.,0.,0.));
#1633=DIRECTION('',(0.,0.,1.));
#1634=DIRECTION('',(0.,0.707106781186548,-0.707106781186548));
#1635=DIRECTION('',(1.,0.,0.));
#1636=DIRECTION('',(0.,0.,-1.));
#1637=DIRECTION('',(0.,0.707106781186548,0.707106781186548));
#1638=DIRECTION('',(0.,0.,-1.));
#1639=DIRECTION('',(1.,0.,0.));
#1640=DIRECTION('',(0.,0.,-1.));
#1641=DIRECTION('',(0.,0.,-1.));
#1642=DIRECTION('',(0.,-0.707106781186548,-0.707106781186548));
#1643=DIRECTION('',(0.,0.,-1.));
#1644=DIRECTION('',(-1.,0.,0.));
#1645=DIRECTION('',(-1.36901197918158E-16,-0.707106781186548,0.707106781186548));
#1646=DIRECTION('',(-1.36901197918158E-16,-0.707106781186548,-0.707106781186548));
#1647=DIRECTION('',(0.,0.,1.));
#1648=DIRECTION('',(1.,0.,0.));
#1649=DIRECTION('',(1.,0.,0.));
#1650=DIRECTION('',(0.,0.,1.));
#1651=DIRECTION('',(1.,0.,0.));
#1652=DIRECTION('',(0.,-1.,0.));
#1653=DIRECTION('',(-1.,0.,0.));
#1654=DIRECTION('',(0.,0.,1.));
#1655=DIRECTION('',(0.,0.,-1.));
#1656=DIRECTION('',(0.,0.,-1.));
#1657=DIRECTION('',(0.,-1.,0.));
#1658=DIRECTION('',(0.,1.,0.));
#1659=DIRECTION('',(0.,0.,1.));
#1660=DIRECTION('',(0.,0.,-1.));
#1661=DIRECTION('',(1.,0.,0.));
#1662=DIRECTION('',(0.,1.,0.));
#1663=DIRECTION('',(0.,0.,1.));
#1664=DIRECTION('',(0.,0.,-1.));
#1665=DIRECTION('',(0.,0.,-1.));
#1666=DIRECTION('',(1.,0.,0.));
#1667=DIRECTION('',(-1.,0.,0.));
#1668=DIRECTION('',(0.,0.,1.));
#1669=DIRECTION('',(0.,0.,-1.));
#1670=DIRECTION('',(0.,1.,0.));
#1671=DIRECTION('',(1.,0.,0.));
#1672=DIRECTION('',(0.,0.,-1.));
#1673=DIRECTION('',(0.,0.,-1.));
#1674=DIRECTION('',(0.,0.,-1.));
#1675=DIRECTION('',(0.,1.,0.));
#1676=DIRECTION('',(0.,1.,0.));
#1677=DIRECTION('',(0.,0.,1.));
#1678=DIRECTION('',(0.,0.,-1.));
#1679=DIRECTION('',(1.,0.,0.));
#1680=DIRECTION('',(0.,1.,0.));
#1681=DIRECTION('',(0.,0.,1.));
#1682=DIRECTION('',(0.,0.,-1.));
#1683=DIRECTION('',(0.,0.,-1.));
#1684=DIRECTION('',(1.,0.,0.));
#1685=DIRECTION('',(1.,0.,0.));
#1686=DIRECTION('',(0.,0.,-1.));
#1687=DIRECTION('',(0.,0.,-1.));
#1688=DIRECTION('',(0.,-1.,0.));
#1689=DIRECTION('',(0.,0.,-1.));
#1690=DIRECTION('',(-1.,0.,0.));
#1691=DIRECTION('',(0.,0.,1.));
#1692=DIRECTION('',(1.,0.,0.));
#1693=DIRECTION('',(0.,0.,-1.));
#1694=DIRECTION('',(-1.,0.,0.));
#1695=DIRECTION('',(0.,0.,-1.));
#1696=DIRECTION('',(1.,0.,0.));
#1697=DIRECTION('',(0.,0.,-1.));
#1698=DIRECTION('',(-1.,0.,0.));
#1699=DIRECTION('',(0.,0.,1.));
#1700=DIRECTION('',(1.,0.,0.));
#1701=DIRECTION('',(0.,0.,-1.));
#1702=DIRECTION('',(-1.,0.,0.));
#1703=DIRECTION('',(0.,0.,-1.));
#1704=DIRECTION('',(1.,0.,0.));
#1705=DIRECTION('',(0.,0.,-1.));
#1706=DIRECTION('',(-1.,0.,0.));
#1707=DIRECTION('',(0.,0.,1.));
#1708=DIRECTION('',(1.,0.,0.));
#1709=DIRECTION('',(0.,0.,-1.));
#1710=DIRECTION('',(-1.,0.,0.));
#1711=DIRECTION('',(0.,0.,-1.));
#1712=DIRECTION('',(1.,0.,0.));
#1713=DIRECTION('',(0.,0.,-1.));
#1714=DIRECTION('',(-1.,0.,0.));
#1715=DIRECTION('',(0.,0.,1.));
#1716=DIRECTION('',(1.,0.,0.));
#1717=DIRECTION('',(0.,0.,-1.));
#1718=DIRECTION('',(-1.,0.,0.));
#1719=DIRECTION('',(0.,0.,-1.));
#1720=DIRECTION('',(1.,0.,0.));
#1721=DIRECTION('',(0.,0.,1.));
#1722=DIRECTION('',(1.,0.,0.));
#1723=DIRECTION('',(0.,0.,1.));
#1724=DIRECTION('',(1.,0.,0.));
#1725=DIRECTION('',(0.,0.,1.));
#1726=DIRECTION('',(1.,0.,0.));
#1727=DIRECTION('',(0.,0.,1.));
#1728=DIRECTION('',(1.,0.,0.));
#1729=DIRECTION('',(0.,0.,1.));
#1730=DIRECTION('',(1.,0.,0.));
#1731=DIRECTION('',(0.,0.,1.));
#1732=DIRECTION('',(1.,0.,0.));
#1733=DIRECTION('',(0.,0.,-1.));
#1734=DIRECTION('',(0.,0.,-1.));
#1735=DIRECTION('',(0.,0.,1.));
#1736=DIRECTION('',(1.,0.,0.));
#1737=DIRECTION('',(0.,0.,1.));
#1738=DIRECTION('',(1.,0.,0.));
#1739=DIRECTION('',(0.,0.,-1.));
#1740=DIRECTION('',(0.,0.,-1.));
#1741=DIRECTION('',(0.,0.,1.));
#1742=DIRECTION('',(1.,0.,0.));
#1743=DIRECTION('',(0.,0.,1.));
#1744=DIRECTION('',(1.,0.,0.));
#1745=DIRECTION('',(0.,0.,-1.));
#1746=DIRECTION('',(0.,0.,-1.));
#1747=DIRECTION('',(0.,0.,1.));
#1748=DIRECTION('',(1.,0.,0.));
#1749=DIRECTION('',(0.,0.,1.));
#1750=DIRECTION('',(1.,0.,0.));
#1751=DIRECTION('',(0.,0.,-1.));
#1752=DIRECTION('',(0.,0.,-1.));
#1753=DIRECTION('',(-1.,0.,0.));
#1754=DIRECTION('',(0.,0.,1.));
#1755=DIRECTION('',(0.,0.,-1.));
#1756=DIRECTION('',(0.,1.,0.));
#1757=DIRECTION('',(0.,0.,-1.));
#1758=DIRECTION('',(0.,-1.,0.));
#1759=DIRECTION('',(0.,-1.,0.));
#1760=DIRECTION('',(0.,0.,1.));
#1761=DIRECTION('',(1.,0.,0.));
#1762=DIRECTION('',(1.,0.,0.));
#1763=DIRECTION('',(0.,0.,-1.));
#1764=DIRECTION('',(0.,-1.,0.));
#1765=DIRECTION('',(0.,0.,1.));
#1766=DIRECTION('',(0.,0.,-1.));
#1767=DIRECTION('',(1.,0.,0.));
#1768=DIRECTION('',(0.,0.,-1.));
#1769=DIRECTION('',(1.,0.,0.));
#1770=DIRECTION('',(-1.,0.,0.));
#1771=DIRECTION('',(0.,0.,1.));
#1772=DIRECTION('',(0.,-1.,0.));
#1773=DIRECTION('',(0.,-1.,0.));
#1774=DIRECTION('',(0.,0.,-1.));
#1775=DIRECTION('',(1.,0.,0.));
#1776=DIRECTION('',(0.,0.,-1.));
#1777=DIRECTION('',(0.,0.,-1.));
#1778=DIRECTION('',(0.,-1.,0.));
#1779=DIRECTION('',(0.,0.,-1.));
#1780=DIRECTION('',(0.,1.,0.));
#1781=DIRECTION('',(0.,-1.,0.));
#1782=DIRECTION('',(0.,0.,1.));
#1783=DIRECTION('',(1.,0.,0.));
#1784=DIRECTION('',(1.,0.,0.));
#1785=DIRECTION('',(0.,0.,-1.));
#1786=DIRECTION('',(0.,-1.,0.));
#1787=DIRECTION('',(0.,0.,1.));
#1788=DIRECTION('',(0.,0.,-1.));
#1789=DIRECTION('',(1.,0.,0.));
#1790=DIRECTION('',(0.,0.,-1.));
#1791=DIRECTION('',(1.,0.,0.));
#1792=DIRECTION('',(1.,0.,0.));
#1793=DIRECTION('',(0.,0.,-1.));
#1794=DIRECTION('',(0.,1.,0.));
#1795=DIRECTION('',(0.,1.,0.));
#1796=DIRECTION('',(0.,0.,-1.));
#1797=DIRECTION('',(0.,0.,-1.));
#1798=DIRECTION('',(-1.,0.,0.));
#1799=DIRECTION('',(0.,0.,1.));
#1800=DIRECTION('',(-1.,0.,0.));
#1801=DIRECTION('',(0.,0.,-1.));
#1802=DIRECTION('',(1.,0.,0.));
#1803=DIRECTION('',(0.,0.,-1.));
#1804=DIRECTION('',(1.,0.,0.));
#1805=DIRECTION('',(0.,0.,-1.));
#1806=DIRECTION('',(-1.,0.,0.));
#1807=DIRECTION('',(0.,0.,1.));
#1808=DIRECTION('',(-1.,0.,0.));
#1809=DIRECTION('',(0.,0.,-1.));
#1810=DIRECTION('',(1.,0.,0.));
#1811=DIRECTION('',(0.,0.,-1.));
#1812=DIRECTION('',(1.,0.,0.));
#1813=DIRECTION('',(0.,0.,-1.));
#1814=DIRECTION('',(-1.,0.,0.));
#1815=DIRECTION('',(0.,0.,1.));
#1816=DIRECTION('',(-1.,0.,0.));
#1817=DIRECTION('',(0.,0.,-1.));
#1818=DIRECTION('',(1.,0.,0.));
#1819=DIRECTION('',(0.,0.,-1.));
#1820=DIRECTION('',(1.,0.,0.));
#1821=DIRECTION('',(0.,0.,-1.));
#1822=DIRECTION('',(-1.,0.,0.));
#1823=DIRECTION('',(0.,0.,1.));
#1824=DIRECTION('',(-1.,0.,0.));
#1825=DIRECTION('',(0.,0.,-1.));
#1826=DIRECTION('',(1.,0.,0.));
#1827=DIRECTION('',(0.,0.,-1.));
#1828=DIRECTION('',(1.,0.,0.));
#1829=DIRECTION('',(0.,0.,1.));
#1830=DIRECTION('',(1.,0.,0.));
#1831=DIRECTION('',(0.,0.,-1.));
#1832=DIRECTION('',(1.,0.,0.));
#1833=DIRECTION('',(0.,0.,1.));
#1834=DIRECTION('',(1.,0.,0.));
#1835=DIRECTION('',(0.,0.,-1.));
#1836=DIRECTION('',(1.,0.,0.));
#1837=DIRECTION('',(0.,0.,1.));
#1838=DIRECTION('',(1.,0.,0.));
#1839=DIRECTION('',(0.,0.,-1.));
#1840=DIRECTION('',(1.,0.,0.));
#1841=DIRECTION('',(0.,0.,1.));
#1842=DIRECTION('',(1.,0.,0.));
#1843=DIRECTION('',(0.,0.,-1.));
#1844=DIRECTION('',(1.,0.,0.));
#1845=DIRECTION('',(0.,0.,1.));
#1846=DIRECTION('',(1.,0.,0.));
#1847=DIRECTION('',(0.,0.,1.));
#1848=DIRECTION('',(1.,0.,0.));
#1849=DIRECTION('',(0.,0.,1.));
#1850=DIRECTION('',(1.,0.,0.));
#1851=DIRECTION('',(0.,0.,1.));
#1852=DIRECTION('',(1.,0.,0.));
#1853=DIRECTION('',(-1.36901197918158E-16,-0.707106781186548,-0.707106781186547));
#1854=DIRECTION('',(-1.,1.93607530800983E-16,0.));
#1855=DIRECTION('',(-1.36901197918158E-16,-0.707106781186548,0.707106781186548));
#1856=DIRECTION('',(1.,-1.93607530800983E-16,0.));
#1857=CARTESIAN_POINT('',(0.,0.,0.));
#1858=CARTESIAN_POINT('',(0.,-0.00575,-0.0026));
#1859=CARTESIAN_POINT('',(0.,-0.00575,-0.0017));
#1860=CARTESIAN_POINT('',(-0.00015,-0.00673868599666426,-0.0017));
#1861=CARTESIAN_POINT('',(-0.000988685996664259,-0.0059,-0.0017));
#1862=CARTESIAN_POINT('',(-0.00015,-0.00673868599666426,0.));
#1863=CARTESIAN_POINT('',(-0.00015,-0.00673868599666426,0.));
#1864=CARTESIAN_POINT('',(0.,-0.00575,0.));
#1865=CARTESIAN_POINT('',(-0.000988685996664259,-0.0059,0.));
#1866=CARTESIAN_POINT('',(-0.000988685996664259,-0.0059,0.));
#1867=CARTESIAN_POINT('',(0.,-0.00575,-0.0026));
#1868=CARTESIAN_POINT('',(0.,-0.00575,-0.0017));
#1869=CARTESIAN_POINT('',(-0.000988685996664259,-0.0056,-0.0017));
#1870=CARTESIAN_POINT('',(-0.00015,-0.00476131400333574,-0.0017));
#1871=CARTESIAN_POINT('',(-0.000988685996664259,-0.0056,0.));
#1872=CARTESIAN_POINT('',(-0.000988685996664259,-0.0056,0.));
#1873=CARTESIAN_POINT('',(0.,-0.00575,0.));
#1874=CARTESIAN_POINT('',(-0.00015,-0.00476131400333574,0.));
#1875=CARTESIAN_POINT('',(-0.00015,-0.00476131400333574,0.));
#1876=CARTESIAN_POINT('',(0.,-0.00575,-0.0026));
#1877=CARTESIAN_POINT('',(0.,-0.00575,-0.0017));
#1878=CARTESIAN_POINT('',(0.00015,-0.00476131400333574,-0.0017));
#1879=CARTESIAN_POINT('',(0.000988685996664259,-0.0056,-0.0017));
#1880=CARTESIAN_POINT('',(0.00015,-0.00476131400333574,0.));
#1881=CARTESIAN_POINT('',(0.00015,-0.00476131400333574,0.));
#1882=CARTESIAN_POINT('',(0.,-0.00575,0.));
#1883=CARTESIAN_POINT('',(0.000988685996664259,-0.0056,0.));
#1884=CARTESIAN_POINT('',(0.000988685996664259,-0.0056,0.));
#1885=CARTESIAN_POINT('',(0.,-0.00575,-0.0026));
#1886=CARTESIAN_POINT('',(0.,-0.00575,-0.0017));
#1887=CARTESIAN_POINT('',(0.000988685996664259,-0.0059,-0.0017));
#1888=CARTESIAN_POINT('',(0.00015,-0.00673868599666426,-0.0017));
#1889=CARTESIAN_POINT('',(0.000988685996664259,-0.0059,0.));
#1890=CARTESIAN_POINT('',(0.000988685996664259,-0.0059,0.));
#1891=CARTESIAN_POINT('',(0.,-0.00575,0.));
#1892=CARTESIAN_POINT('',(0.00015,-0.00673868599666426,0.));
#1893=CARTESIAN_POINT('',(0.00015,-0.00673868599666426,0.));
#1894=CARTESIAN_POINT('',(0.,0.,-0.0026));
#1895=CARTESIAN_POINT('',(-0.00015,-0.00631934299833213,-0.0026));
#1896=CARTESIAN_POINT('',(-0.00015,-0.00663741196746494,-0.0026));
#1897=CARTESIAN_POINT('',(-0.00015,-0.0059,-0.0026));
#1898=CARTESIAN_POINT('',(-1.50433051432363E-18,-0.00575,-0.0026));
#1899=CARTESIAN_POINT('',(-0.000887411967464943,-0.0059,-0.0026));
#1900=CARTESIAN_POINT('',(-0.000619862367942584,-0.0059,-0.0026));
#1901=CARTESIAN_POINT('',(0.,0.,-0.0026));
#1902=CARTESIAN_POINT('',(-0.000619862367942584,-0.0056,-0.0026));
#1903=CARTESIAN_POINT('',(-0.000887411967464941,-0.0056,-0.0026));
#1904=CARTESIAN_POINT('',(-0.00015,-0.0056,-0.0026));
#1905=CARTESIAN_POINT('',(2.33103467084383E-18,-0.00575,-0.0026));
#1906=CARTESIAN_POINT('',(-0.00015,-0.00486258803253506,-0.0026));
#1907=CARTESIAN_POINT('',(-0.00015,-0.00518065700166787,-0.0026));
#1908=CARTESIAN_POINT('',(0.,0.,-0.0026));
#1909=CARTESIAN_POINT('',(0.00015,-0.00518065700166787,-0.0026));
#1910=CARTESIAN_POINT('',(0.00015,-0.00486258803253506,-0.0026));
#1911=CARTESIAN_POINT('',(0.00015,-0.0056,-0.0026));
#1912=CARTESIAN_POINT('',(-8.53809210832335E-19,-0.00575,-0.0026));
#1913=CARTESIAN_POINT('',(0.000887411967464941,-0.0056,-0.0026));
#1914=CARTESIAN_POINT('',(0.000619862367942585,-0.0056,-0.0026));
#1915=CARTESIAN_POINT('',(0.,0.,0.));
#1916=CARTESIAN_POINT('',(4.33680868994202E-19,0.00391,0.));
#1917=CARTESIAN_POINT('',(0.00518,0.00391,0.));
#1918=CARTESIAN_POINT('',(-0.00518,0.00391,0.));
#1919=CARTESIAN_POINT('',(-0.00518,0.,0.));
#1920=CARTESIAN_POINT('',(-0.00518,-0.00391,0.));
#1921=CARTESIAN_POINT('',(0.,-0.00391,0.));
#1922=CARTESIAN_POINT('',(0.00518,-0.00391,0.));
#1923=CARTESIAN_POINT('',(0.00518,-8.67361737988404E-19,0.));
#1924=CARTESIAN_POINT('',(-0.00374,-0.00471,0.));
#1925=CARTESIAN_POINT('',(0.00598,-0.00471,0.));
#1926=CARTESIAN_POINT('',(0.0015,-0.00471,0.));
#1927=CARTESIAN_POINT('',(0.0015,-0.00523,0.));
#1928=CARTESIAN_POINT('',(0.0015,-0.00575,0.));
#1929=CARTESIAN_POINT('',(0.,-0.00575,0.));
#1930=CARTESIAN_POINT('',(-0.0015,-0.00575,0.));
#1931=CARTESIAN_POINT('',(-0.0015,-0.00523,0.));
#1932=CARTESIAN_POINT('',(-0.0015,-0.00471,0.));
#1933=CARTESIAN_POINT('',(-0.00374,-0.00471,0.));
#1934=CARTESIAN_POINT('',(-0.00598,-0.00471,0.));
#1935=CARTESIAN_POINT('',(-0.00598,0.,0.));
#1936=CARTESIAN_POINT('',(-0.00598,0.00471,0.));
#1937=CARTESIAN_POINT('',(0.00374,0.00471,0.));
#1938=CARTESIAN_POINT('',(-0.0015,0.00471,0.));
#1939=CARTESIAN_POINT('',(-0.0015,0.00523,0.));
#1940=CARTESIAN_POINT('',(-0.0015,0.00575,0.));
#1941=CARTESIAN_POINT('',(0.,0.00575,0.));
#1942=CARTESIAN_POINT('',(0.0015,0.00575,0.));
#1943=CARTESIAN_POINT('',(0.0015,0.00523,0.));
#1944=CARTESIAN_POINT('',(0.0015,0.00471,0.));
#1945=CARTESIAN_POINT('',(0.00374,0.00471,0.));
#1946=CARTESIAN_POINT('',(0.00598,0.00471,0.));
#1947=CARTESIAN_POINT('',(0.00598,-1.7347234759768E-18,0.));
#1948=CARTESIAN_POINT('',(0.,0.00575,0.));
#1949=CARTESIAN_POINT('',(-0.00015,0.00673868599666426,0.));
#1950=CARTESIAN_POINT('',(-0.000988685996664259,0.0059,0.));
#1951=CARTESIAN_POINT('',(-0.000619862367942584,0.0059,0.));
#1952=CARTESIAN_POINT('',(-0.00015,0.0059,0.));
#1953=CARTESIAN_POINT('',(-0.00015,0.00631934299833213,0.));
#1954=CARTESIAN_POINT('',(0.,0.00575,0.));
#1955=CARTESIAN_POINT('',(-0.000988685996664259,0.0056,0.));
#1956=CARTESIAN_POINT('',(-0.00015,0.00476131400333574,0.));
#1957=CARTESIAN_POINT('',(-0.00015,0.00518065700166787,0.));
#1958=CARTESIAN_POINT('',(-0.00015,0.0056,0.));
#1959=CARTESIAN_POINT('',(-0.000619862367942584,0.0056,0.));
#1960=CARTESIAN_POINT('',(0.,0.00575,0.));
#1961=CARTESIAN_POINT('',(0.00015,0.00476131400333574,0.));
#1962=CARTESIAN_POINT('',(0.000988685996664259,0.0056,0.));
#1963=CARTESIAN_POINT('',(0.000619862367942585,0.0056,0.));
#1964=CARTESIAN_POINT('',(0.00015,0.0056,0.));
#1965=CARTESIAN_POINT('',(0.00015,0.00518065700166787,0.));
#1966=CARTESIAN_POINT('',(0.,0.00575,0.));
#1967=CARTESIAN_POINT('',(0.000988685996664259,0.0059,0.));
#1968=CARTESIAN_POINT('',(0.00015,0.00673868599666426,0.));
#1969=CARTESIAN_POINT('',(0.00015,0.00631934299833213,0.));
#1970=CARTESIAN_POINT('',(0.00015,0.0059,0.));
#1971=CARTESIAN_POINT('',(0.000619862367942585,0.0059,0.));
#1972=CARTESIAN_POINT('',(0.000619862367942585,-0.0059,0.));
#1973=CARTESIAN_POINT('',(0.00015,-0.0059,0.));
#1974=CARTESIAN_POINT('',(0.00015,-0.00631934299833213,0.));
#1975=CARTESIAN_POINT('',(0.00015,-0.00518065700166787,0.));
#1976=CARTESIAN_POINT('',(0.00015,-0.0056,0.));
#1977=CARTESIAN_POINT('',(0.000619862367942585,-0.0056,0.));
#1978=CARTESIAN_POINT('',(-0.000619862367942584,-0.0056,0.));
#1979=CARTESIAN_POINT('',(-0.00015,-0.0056,0.));
#1980=CARTESIAN_POINT('',(-0.00015,-0.00518065700166787,0.));
#1981=CARTESIAN_POINT('',(-0.00015,-0.00631934299833213,0.));
#1982=CARTESIAN_POINT('',(-0.00015,-0.0059,0.));
#1983=CARTESIAN_POINT('',(-0.000619862367942584,-0.0059,0.));
#1984=CARTESIAN_POINT('',(0.00374,0.00471,0.01));
#1985=CARTESIAN_POINT('',(0.00374,0.00471,0.004));
#1986=CARTESIAN_POINT('',(0.0015,0.00471,0.004));
#1987=CARTESIAN_POINT('',(-0.0015,0.00471,0.004));
#1988=CARTESIAN_POINT('',(-0.0015,0.00471,0.001));
#1989=CARTESIAN_POINT('',(-0.00598,0.00471,0.01));
#1990=CARTESIAN_POINT('',(-0.00598,0.00471,0.01));
#1991=CARTESIAN_POINT('',(0.00374,0.00471,0.01));
#1992=CARTESIAN_POINT('',(0.00598,0.00471,0.01));
#1993=CARTESIAN_POINT('',(0.00598,0.00471,0.01));
#1994=CARTESIAN_POINT('',(0.0015,0.00471,0.001));
#1995=CARTESIAN_POINT('',(4.33680868994202E-19,0.00391,0.01));
#1996=CARTESIAN_POINT('',(0.00518,0.00391,0.01));
#1997=CARTESIAN_POINT('',(0.00518,0.00391,0.01));
#1998=CARTESIAN_POINT('',(4.33680868994202E-19,0.00391,0.01));
#1999=CARTESIAN_POINT('',(-0.00518,0.00391,0.01));
#2000=CARTESIAN_POINT('',(-0.00518,0.00391,0.01));
#2001=CARTESIAN_POINT('',(0.00518,-8.67361737988404E-19,0.01));
#2002=CARTESIAN_POINT('',(0.00518,-0.00391,0.01));
#2003=CARTESIAN_POINT('',(0.00518,-0.00391,0.01));
#2004=CARTESIAN_POINT('',(0.00518,-8.67361737988404E-19,0.01));
#2005=CARTESIAN_POINT('',(0.,-0.00391,0.01));
#2006=CARTESIAN_POINT('',(-0.00518,-0.00391,0.01));
#2007=CARTESIAN_POINT('',(-0.00518,-0.00391,0.01));
#2008=CARTESIAN_POINT('',(0.,-0.00391,0.01));
#2009=CARTESIAN_POINT('',(-0.00374,-0.00471,0.01));
#2010=CARTESIAN_POINT('',(-0.0015,-0.00471,0.001));
#2011=CARTESIAN_POINT('',(-0.0015,-0.00471,0.004));
#2012=CARTESIAN_POINT('',(0.0015,-0.00471,0.004));
#2013=CARTESIAN_POINT('',(0.0015,-0.00471,0.004));
#2014=CARTESIAN_POINT('',(0.0015,-0.00471,0.001));
#2015=CARTESIAN_POINT('',(0.00598,-0.00471,0.01));
#2016=CARTESIAN_POINT('',(0.00598,-0.00471,0.01));
#2017=CARTESIAN_POINT('',(-0.00374,-0.00471,0.01));
#2018=CARTESIAN_POINT('',(-0.00598,-0.00471,0.01));
#2019=CARTESIAN_POINT('',(-0.00598,-0.00471,0.01));
#2020=CARTESIAN_POINT('',(0.00598,-1.7347234759768E-18,0.01));
#2021=CARTESIAN_POINT('',(0.00598,-1.7347234759768E-18,0.01));
#2022=CARTESIAN_POINT('',(-0.00598,0.,0.01));
#2023=CARTESIAN_POINT('',(-0.00598,0.,0.01));
#2024=CARTESIAN_POINT('',(-0.00518,0.,0.01));
#2025=CARTESIAN_POINT('',(-0.00518,0.,0.01));
#2026=CARTESIAN_POINT('',(0.,0.,0.01));
#2027=CARTESIAN_POINT('',(0.0015,0.00523,0.001));
#2028=CARTESIAN_POINT('',(0.0015,0.00575,0.001));
#2029=CARTESIAN_POINT('',(0.0015,0.00575,0.00296));
#2030=CARTESIAN_POINT('',(0.0015,0.00647,0.00224));
#2031=CARTESIAN_POINT('',(0.,0.00575,0.001));
#2032=CARTESIAN_POINT('',(-0.0015,0.00575,0.001));
#2033=CARTESIAN_POINT('',(-0.0015,0.00575,0.00296));
#2034=CARTESIAN_POINT('',(0.,0.00575,0.00296));
#2035=CARTESIAN_POINT('',(-0.0015,0.00523,0.001));
#2036=CARTESIAN_POINT('',(-0.0015,0.00471,0.004));
#2037=CARTESIAN_POINT('',(0.0015,-0.00523,0.001));
#2038=CARTESIAN_POINT('',(0.0015,-0.00771,0.001));
#2039=CARTESIAN_POINT('',(0.0015,-0.00575,0.00296));
#2040=CARTESIAN_POINT('',(0.0015,-0.00575,0.001));
#2041=CARTESIAN_POINT('',(-0.0015,-0.00523,0.001));
#2042=CARTESIAN_POINT('',(-0.0015,-0.00575,0.001));
#2043=CARTESIAN_POINT('',(-0.0015,-0.00575,0.00296));
#2044=CARTESIAN_POINT('',(-0.0015,-0.00647,0.00224));
#2045=CARTESIAN_POINT('',(0.,-0.00575,0.001));
#2046=CARTESIAN_POINT('',(0.,-0.00575,0.00296));
#2047=CARTESIAN_POINT('',(0.,0.,-0.0026));
#2048=CARTESIAN_POINT('',(0.000619862367942585,-0.0059,-0.0026));
#2049=CARTESIAN_POINT('',(0.00015,-0.0059,-0.0026));
#2050=CARTESIAN_POINT('',(0.000887411967464943,-0.0059,-0.0026));
#2051=CARTESIAN_POINT('',(1.09775469964157E-18,-0.00575,-0.0026));
#2052=CARTESIAN_POINT('',(0.00015,-0.00663741196746494,-0.0026));
#2053=CARTESIAN_POINT('',(0.00015,-0.00631934299833213,-0.0026));
#2054=CARTESIAN_POINT('',(-0.00015,-0.00631934299833213,0.));
#2055=CARTESIAN_POINT('',(-0.00015,-0.00683972473588517,-0.0017));
#2056=CARTESIAN_POINT('',(-0.00015,-0.00683972473588517,-0.0017));
#2057=CARTESIAN_POINT('',(-0.00015,-0.00683972473588517,-0.0024));
#2058=CARTESIAN_POINT('',(-0.00015,-0.00683972473588517,-0.0024));
#2059=CARTESIAN_POINT('',(-0.00015,-0.00677235755727195,-0.00246673789174693));
#2060=CARTESIAN_POINT('',(-0.00015,-0.00670493581479168,-0.00253342058865886));
#2061=CARTESIAN_POINT('',(-0.00015,-0.00663741196746494,-0.0026));
#2062=CARTESIAN_POINT('',(-0.00015,-0.0059,0.));
#2063=CARTESIAN_POINT('',(-0.00015,-0.00678920536627472,-0.0017));
#2064=CARTESIAN_POINT('',(-0.000619862367942584,-0.0059,0.));
#2065=CARTESIAN_POINT('',(-0.000887411967464943,-0.0059,-0.0026));
#2066=CARTESIAN_POINT('',(-0.000954935814791683,-0.0059,-0.00253342058865886));
#2067=CARTESIAN_POINT('',(-0.00102235755727195,-0.0059,-0.00246673789174693));
#2068=CARTESIAN_POINT('',(-0.00108972473588517,-0.0059,-0.0024));
#2069=CARTESIAN_POINT('',(-0.00108972473588517,-0.0059,-0.0024));
#2070=CARTESIAN_POINT('',(-0.00108972473588517,-0.0059,-0.0017));
#2071=CARTESIAN_POINT('',(-0.00108972473588517,-0.0059,-0.0017));
#2072=CARTESIAN_POINT('',(-0.000619862367942584,-0.0059,-0.0017));
#2073=CARTESIAN_POINT('',(-0.000619862367942584,-0.0056,0.));
#2074=CARTESIAN_POINT('',(-0.00108972473588517,-0.0056,-0.0017));
#2075=CARTESIAN_POINT('',(-0.00108972473588517,-0.0056,-0.0017));
#2076=CARTESIAN_POINT('',(-0.00108972473588517,-0.0056,-0.0024));
#2077=CARTESIAN_POINT('',(-0.00108972473588517,-0.0056,-0.0024));
#2078=CARTESIAN_POINT('',(-0.00102235755727195,-0.0056,-0.00246673789174693));
#2079=CARTESIAN_POINT('',(-0.000954935814791681,-0.0056,-0.00253342058865886));
#2080=CARTESIAN_POINT('',(-0.000887411967464941,-0.0056,-0.0026));
#2081=CARTESIAN_POINT('',(-0.00015,-0.0056,0.));
#2082=CARTESIAN_POINT('',(-0.000619862367942584,-0.0056,-0.0017));
#2083=CARTESIAN_POINT('',(-0.00015,-0.00518065700166787,0.));
#2084=CARTESIAN_POINT('',(-0.00015,-0.00486258803253506,-0.0026));
#2085=CARTESIAN_POINT('',(-0.00015,-0.00479506418520832,-0.00253342058865886));
#2086=CARTESIAN_POINT('',(-0.00015,-0.00472764244272805,-0.00246673789174693));
#2087=CARTESIAN_POINT('',(-0.00015,-0.00466027526411483,-0.0024));
#2088=CARTESIAN_POINT('',(-0.00015,-0.00466027526411483,-0.0024));
#2089=CARTESIAN_POINT('',(-0.00015,-0.00466027526411483,-0.0017));
#2090=CARTESIAN_POINT('',(-0.00015,-0.00466027526411483,-0.0017));
#2091=CARTESIAN_POINT('',(-0.00015,-0.00471079463372529,-0.0017));
#2092=CARTESIAN_POINT('',(0.00015,-0.00518065700166787,0.));
#2093=CARTESIAN_POINT('',(0.00015,-0.00466027526411483,-0.0017));
#2094=CARTESIAN_POINT('',(0.00015,-0.00466027526411483,-0.0017));
#2095=CARTESIAN_POINT('',(0.00015,-0.00466027526411483,-0.0024));
#2096=CARTESIAN_POINT('',(0.00015,-0.00466027526411483,-0.0024));
#2097=CARTESIAN_POINT('',(0.00015,-0.00472764244272805,-0.00246673789174693));
#2098=CARTESIAN_POINT('',(0.00015,-0.00479506418520832,-0.00253342058865886));
#2099=CARTESIAN_POINT('',(0.00015,-0.00486258803253506,-0.0026));
#2100=CARTESIAN_POINT('',(0.00015,-0.0056,0.));
#2101=CARTESIAN_POINT('',(0.00015,-0.00471079463372529,-0.0017));
#2102=CARTESIAN_POINT('',(0.000619862367942585,-0.0056,0.));
#2103=CARTESIAN_POINT('',(0.000887411967464941,-0.0056,-0.0026));
#2104=CARTESIAN_POINT('',(0.000954935814791682,-0.0056,-0.00253342058865886));
#2105=CARTESIAN_POINT('',(0.00102235755727195,-0.0056,-0.00246673789174693));
#2106=CARTESIAN_POINT('',(0.00108972473588517,-0.0056,-0.0024));
#2107=CARTESIAN_POINT('',(0.00108972473588517,-0.0056,-0.0024));
#2108=CARTESIAN_POINT('',(0.00108972473588517,-0.0056,-0.0017));
#2109=CARTESIAN_POINT('',(0.00108972473588517,-0.0056,-0.0017));
#2110=CARTESIAN_POINT('',(0.000619862367942585,-0.0056,-0.0017));
#2111=CARTESIAN_POINT('',(0.000619862367942585,-0.0059,0.));
#2112=CARTESIAN_POINT('',(0.00108972473588517,-0.0059,-0.0017));
#2113=CARTESIAN_POINT('',(0.00108972473588517,-0.0059,-0.0017));
#2114=CARTESIAN_POINT('',(0.00108972473588517,-0.0059,-0.0024));
#2115=CARTESIAN_POINT('',(0.00108972473588517,-0.0059,-0.0024));
#2116=CARTESIAN_POINT('',(0.00102235755727195,-0.0059,-0.00246673789174693));
#2117=CARTESIAN_POINT('',(0.000954935814791683,-0.0059,-0.00253342058865886));
#2118=CARTESIAN_POINT('',(0.000887411967464943,-0.0059,-0.0026));
#2119=CARTESIAN_POINT('',(0.00015,-0.0059,0.));
#2120=CARTESIAN_POINT('',(0.000619862367942585,-0.0059,-0.0017));
#2121=CARTESIAN_POINT('',(0.00015,-0.00631934299833213,0.));
#2122=CARTESIAN_POINT('',(0.00015,-0.00663741196746494,-0.0026));
#2123=CARTESIAN_POINT('',(0.00015,-0.00670493581479168,-0.00253342058865886));
#2124=CARTESIAN_POINT('',(0.00015,-0.00677235755727195,-0.00246673789174693));
#2125=CARTESIAN_POINT('',(0.00015,-0.00683972473588517,-0.0024));
#2126=CARTESIAN_POINT('',(0.00015,-0.00683972473588517,-0.0024));
#2127=CARTESIAN_POINT('',(0.00015,-0.00683972473588517,-0.0017));
#2128=CARTESIAN_POINT('',(0.00015,-0.00683972473588517,-0.0017));
#2129=CARTESIAN_POINT('',(0.00015,-0.00678920536627472,-0.0017));
#2130=CARTESIAN_POINT('',(1.09775469964157E-18,-0.00575,-0.0017));
#2131=CARTESIAN_POINT('',(1.09775469964157E-18,-0.00575,-0.0024));
#2132=CARTESIAN_POINT('',(1.09775469964157E-18,-0.00575,-0.0017));
#2133=CARTESIAN_POINT('',(0.,-0.00586666782893161,-0.0017));
#2134=CARTESIAN_POINT('',(-8.53809210832335E-19,-0.00575,-0.0017));
#2135=CARTESIAN_POINT('',(-8.53809210832335E-19,-0.00575,-0.0024));
#2136=CARTESIAN_POINT('',(-8.53809210832335E-19,-0.00575,-0.0017));
#2137=CARTESIAN_POINT('',(0.,-0.00586666782893161,-0.0017));
#2138=CARTESIAN_POINT('',(2.33103467084383E-18,-0.00575,-0.0017));
#2139=CARTESIAN_POINT('',(2.33103467084383E-18,-0.00575,-0.0024));
#2140=CARTESIAN_POINT('',(2.33103467084383E-18,-0.00575,-0.0017));
#2141=CARTESIAN_POINT('',(0.,-0.00586666782893161,-0.0017));
#2142=CARTESIAN_POINT('',(-1.50433051432363E-18,-0.00575,-0.0017));
#2143=CARTESIAN_POINT('',(-1.50433051432363E-18,-0.00575,-0.0024));
#2144=CARTESIAN_POINT('',(-1.50433051432363E-18,-0.00575,-0.0017));
#2145=CARTESIAN_POINT('',(0.,-0.00586666782893161,-0.0017));
#2146=CARTESIAN_POINT('',(-8.53809210832335E-19,-0.00575,-0.0026));
#2147=CARTESIAN_POINT('',(2.33103467084383E-18,-0.00575,-0.0026));
#2148=CARTESIAN_POINT('',(-1.50433051432363E-18,-0.00575,-0.0026));
#2149=CARTESIAN_POINT('',(1.09775469964157E-18,-0.00575,-0.0026));
#2150=CARTESIAN_POINT('',(0.,0.00575,-0.0026));
#2151=CARTESIAN_POINT('',(0.,0.00575,-0.0017));
#2152=CARTESIAN_POINT('',(-0.00015,0.00673868599666426,-0.0017));
#2153=CARTESIAN_POINT('',(-0.000988685996664259,0.0059,-0.0017));
#2154=CARTESIAN_POINT('',(-0.000988685996664259,0.0059,0.));
#2155=CARTESIAN_POINT('',(-0.00015,0.00673868599666426,0.));
#2156=CARTESIAN_POINT('',(0.,0.00575,-0.0026));
#2157=CARTESIAN_POINT('',(0.,0.00575,-0.0017));
#2158=CARTESIAN_POINT('',(-0.000988685996664259,0.0056,-0.0017));
#2159=CARTESIAN_POINT('',(-0.00015,0.00476131400333574,-0.0017));
#2160=CARTESIAN_POINT('',(-0.00015,0.00476131400333574,0.));
#2161=CARTESIAN_POINT('',(-0.000988685996664259,0.0056,0.));
#2162=CARTESIAN_POINT('',(0.,0.00575,-0.0026));
#2163=CARTESIAN_POINT('',(0.,0.00575,-0.0017));
#2164=CARTESIAN_POINT('',(0.00015,0.00476131400333574,-0.0017));
#2165=CARTESIAN_POINT('',(0.000988685996664259,0.0056,-0.0017));
#2166=CARTESIAN_POINT('',(0.000988685996664259,0.0056,0.));
#2167=CARTESIAN_POINT('',(0.00015,0.00476131400333574,0.));
#2168=CARTESIAN_POINT('',(0.,0.00575,-0.0026));
#2169=CARTESIAN_POINT('',(0.,0.00575,-0.0017));
#2170=CARTESIAN_POINT('',(0.000988685996664259,0.0059,-0.0017));
#2171=CARTESIAN_POINT('',(0.00015,0.00673868599666426,-0.0017));
#2172=CARTESIAN_POINT('',(0.00015,0.00673868599666426,0.));
#2173=CARTESIAN_POINT('',(0.000988685996664259,0.0059,0.));
#2174=CARTESIAN_POINT('',(-0.00015,0.00631934299833213,0.));
#2175=CARTESIAN_POINT('',(-0.00015,0.00683972473588517,-0.0017));
#2176=CARTESIAN_POINT('',(-0.00015,0.00683972473588517,-0.0017));
#2177=CARTESIAN_POINT('',(-0.00015,0.00683972473588517,-0.0024));
#2178=CARTESIAN_POINT('',(-0.00015,0.00678920536627472,-0.0017));
#2179=CARTESIAN_POINT('',(-0.00015,0.0059,0.));
#2180=CARTESIAN_POINT('',(-0.00015,0.0059,-0.0026));
#2181=CARTESIAN_POINT('',(-0.00015,0.00631934299833213,-0.0026));
#2182=CARTESIAN_POINT('',(-0.00015,0.00663741196746494,-0.0026));
#2183=CARTESIAN_POINT('',(-0.00015,0.00683972473588517,-0.0024));
#2184=CARTESIAN_POINT('',(-0.00015,0.00677235755727195,-0.00246673789174693));
#2185=CARTESIAN_POINT('',(-0.00015,0.00670493581479168,-0.00253342058865886));
#2186=CARTESIAN_POINT('',(-0.00015,0.00663741196746494,-0.0026));
#2187=CARTESIAN_POINT('',(-0.000619862367942584,0.0059,0.));
#2188=CARTESIAN_POINT('',(-0.000619862367942584,0.0059,-0.0026));
#2189=CARTESIAN_POINT('',(-0.000887411967464943,0.0059,-0.0026));
#2190=CARTESIAN_POINT('',(-0.000619862367942584,0.0059,-0.0017));
#2191=CARTESIAN_POINT('',(-0.00108972473588517,0.0059,-0.0017));
#2192=CARTESIAN_POINT('',(-0.00108972473588517,0.0059,-0.0017));
#2193=CARTESIAN_POINT('',(-0.00108972473588517,0.0059,-0.0024));
#2194=CARTESIAN_POINT('',(-0.000887411967464943,0.0059,-0.0026));
#2195=CARTESIAN_POINT('',(-0.000954935814791683,0.0059,-0.00253342058865886));
#2196=CARTESIAN_POINT('',(-0.00102235755727195,0.0059,-0.00246673789174693));
#2197=CARTESIAN_POINT('',(-0.00108972473588517,0.0059,-0.0024));
#2198=CARTESIAN_POINT('',(-0.000619862367942584,0.0056,0.));
#2199=CARTESIAN_POINT('',(-0.00108972473588517,0.0056,-0.0017));
#2200=CARTESIAN_POINT('',(-0.00108972473588517,0.0056,-0.0017));
#2201=CARTESIAN_POINT('',(-0.00108972473588517,0.0056,-0.0024));
#2202=CARTESIAN_POINT('',(-0.000619862367942584,0.0056,-0.0017));
#2203=CARTESIAN_POINT('',(-0.00015,0.0056,0.));
#2204=CARTESIAN_POINT('',(-0.00015,0.0056,-0.0026));
#2205=CARTESIAN_POINT('',(-0.000619862367942584,0.0056,-0.0026));
#2206=CARTESIAN_POINT('',(-0.000887411967464941,0.0056,-0.0026));
#2207=CARTESIAN_POINT('',(-0.00108972473588517,0.0056,-0.0024));
#2208=CARTESIAN_POINT('',(-0.00102235755727195,0.0056,-0.00246673789174693));
#2209=CARTESIAN_POINT('',(-0.000954935814791681,0.0056,-0.00253342058865886));
#2210=CARTESIAN_POINT('',(-0.000887411967464941,0.0056,-0.0026));
#2211=CARTESIAN_POINT('',(-0.00015,0.00518065700166787,0.));
#2212=CARTESIAN_POINT('',(-0.00015,0.00518065700166787,-0.0026));
#2213=CARTESIAN_POINT('',(-0.00015,0.00486258803253506,-0.0026));
#2214=CARTESIAN_POINT('',(-0.00015,0.00471079463372529,-0.0017));
#2215=CARTESIAN_POINT('',(-0.00015,0.00466027526411483,-0.0017));
#2216=CARTESIAN_POINT('',(-0.00015,0.00466027526411483,-0.0017));
#2217=CARTESIAN_POINT('',(-0.00015,0.00466027526411483,-0.0024));
#2218=CARTESIAN_POINT('',(-0.00015,0.00486258803253506,-0.0026));
#2219=CARTESIAN_POINT('',(-0.00015,0.00479506418520832,-0.00253342058865886));
#2220=CARTESIAN_POINT('',(-0.00015,0.00472764244272805,-0.00246673789174693));
#2221=CARTESIAN_POINT('',(-0.00015,0.00466027526411483,-0.0024));
#2222=CARTESIAN_POINT('',(0.00015,0.00518065700166787,0.));
#2223=CARTESIAN_POINT('',(0.00015,0.00466027526411483,-0.0017));
#2224=CARTESIAN_POINT('',(0.00015,0.00466027526411483,-0.0017));
#2225=CARTESIAN_POINT('',(0.00015,0.00466027526411483,-0.0024));
#2226=CARTESIAN_POINT('',(0.00015,0.00471079463372529,-0.0017));
#2227=CARTESIAN_POINT('',(0.00015,0.0056,0.));
#2228=CARTESIAN_POINT('',(0.00015,0.0056,-0.0026));
#2229=CARTESIAN_POINT('',(0.00015,0.00518065700166787,-0.0026));
#2230=CARTESIAN_POINT('',(0.00015,0.00486258803253506,-0.0026));
#2231=CARTESIAN_POINT('',(0.00015,0.00466027526411483,-0.0024));
#2232=CARTESIAN_POINT('',(0.00015,0.00472764244272805,-0.00246673789174693));
#2233=CARTESIAN_POINT('',(0.00015,0.00479506418520832,-0.00253342058865886));
#2234=CARTESIAN_POINT('',(0.00015,0.00486258803253506,-0.0026));
#2235=CARTESIAN_POINT('',(0.000619862367942585,0.0056,0.));
#2236=CARTESIAN_POINT('',(0.000619862367942585,0.0056,-0.0026));
#2237=CARTESIAN_POINT('',(0.000887411967464941,0.0056,-0.0026));
#2238=CARTESIAN_POINT('',(0.000619862367942585,0.0056,-0.0017));
#2239=CARTESIAN_POINT('',(0.00108972473588517,0.0056,-0.0017));
#2240=CARTESIAN_POINT('',(0.00108972473588517,0.0056,-0.0017));
#2241=CARTESIAN_POINT('',(0.00108972473588517,0.0056,-0.0024));
#2242=CARTESIAN_POINT('',(0.000887411967464941,0.0056,-0.0026));
#2243=CARTESIAN_POINT('',(0.000954935814791682,0.0056,-0.00253342058865886));
#2244=CARTESIAN_POINT('',(0.00102235755727195,0.0056,-0.00246673789174693));
#2245=CARTESIAN_POINT('',(0.00108972473588517,0.0056,-0.0024));
#2246=CARTESIAN_POINT('',(0.000619862367942585,0.0059,0.));
#2247=CARTESIAN_POINT('',(0.00108972473588517,0.0059,-0.0017));
#2248=CARTESIAN_POINT('',(0.00108972473588517,0.0059,-0.0017));
#2249=CARTESIAN_POINT('',(0.00108972473588517,0.0059,-0.0024));
#2250=CARTESIAN_POINT('',(0.000619862367942585,0.0059,-0.0017));
#2251=CARTESIAN_POINT('',(0.00015,0.0059,0.));
#2252=CARTESIAN_POINT('',(0.00015,0.0059,-0.0026));
#2253=CARTESIAN_POINT('',(0.000619862367942585,0.0059,-0.0026));
#2254=CARTESIAN_POINT('',(0.000887411967464943,0.0059,-0.0026));
#2255=CARTESIAN_POINT('',(0.00108972473588517,0.0059,-0.0024));
#2256=CARTESIAN_POINT('',(0.00102235755727195,0.0059,-0.00246673789174693));
#2257=CARTESIAN_POINT('',(0.000954935814791683,0.0059,-0.00253342058865886));
#2258=CARTESIAN_POINT('',(0.000887411967464943,0.0059,-0.0026));
#2259=CARTESIAN_POINT('',(0.00015,0.00631934299833213,0.));
#2260=CARTESIAN_POINT('',(0.00015,0.00631934299833213,-0.0026));
#2261=CARTESIAN_POINT('',(0.00015,0.00663741196746494,-0.0026));
#2262=CARTESIAN_POINT('',(0.00015,0.00678920536627472,-0.0017));
#2263=CARTESIAN_POINT('',(0.00015,0.00683972473588517,-0.0017));
#2264=CARTESIAN_POINT('',(0.00015,0.00683972473588517,-0.0017));
#2265=CARTESIAN_POINT('',(0.00015,0.00683972473588517,-0.0024));
#2266=CARTESIAN_POINT('',(0.00015,0.00663741196746494,-0.0026));
#2267=CARTESIAN_POINT('',(0.00015,0.00670493581479168,-0.00253342058865886));
#2268=CARTESIAN_POINT('',(0.00015,0.00677235755727195,-0.00246673789174693));
#2269=CARTESIAN_POINT('',(0.00015,0.00683972473588517,-0.0024));
#2270=CARTESIAN_POINT('',(1.09775469964157E-18,0.00575,-0.0017));
#2271=CARTESIAN_POINT('',(1.09775469964157E-18,0.00575,-0.0017));
#2272=CARTESIAN_POINT('',(1.09775469964157E-18,0.00575,-0.0024));
#2273=CARTESIAN_POINT('',(0.,0.00586666782893161,-0.0017));
#2274=CARTESIAN_POINT('',(-8.53809210832335E-19,0.00575,-0.0017));
#2275=CARTESIAN_POINT('',(-8.53809210832335E-19,0.00575,-0.0017));
#2276=CARTESIAN_POINT('',(-8.53809210832335E-19,0.00575,-0.0024));
#2277=CARTESIAN_POINT('',(0.,0.00586666782893161,-0.0017));
#2278=CARTESIAN_POINT('',(2.33103467084383E-18,0.00575,-0.0017));
#2279=CARTESIAN_POINT('',(2.33103467084383E-18,0.00575,-0.0017));
#2280=CARTESIAN_POINT('',(2.33103467084383E-18,0.00575,-0.0024));
#2281=CARTESIAN_POINT('',(0.,0.00586666782893161,-0.0017));
#2282=CARTESIAN_POINT('',(-1.50433051432363E-18,0.00575,-0.0017));
#2283=CARTESIAN_POINT('',(-1.50433051432363E-18,0.00575,-0.0017));
#2284=CARTESIAN_POINT('',(-1.50433051432363E-18,0.00575,-0.0024));
#2285=CARTESIAN_POINT('',(0.,0.00586666782893161,-0.0017));
#2286=CARTESIAN_POINT('',(-8.53809210832335E-19,0.00575,-0.0026));
#2287=CARTESIAN_POINT('',(-8.53809210832335E-19,0.00575,-0.0026));
#2288=CARTESIAN_POINT('',(2.33103467084383E-18,0.00575,-0.0026));
#2289=CARTESIAN_POINT('',(2.33103467084383E-18,0.00575,-0.0026));
#2290=CARTESIAN_POINT('',(-1.50433051432363E-18,0.00575,-0.0026));
#2291=CARTESIAN_POINT('',(-1.50433051432363E-18,0.00575,-0.0026));
#2292=CARTESIAN_POINT('',(1.09775469964157E-18,0.00575,-0.0026));
#2293=CARTESIAN_POINT('',(1.09775469964157E-18,0.00575,-0.0026));
#2294=CARTESIAN_POINT('',(0.,0.,-0.0026));
#2295=CARTESIAN_POINT('',(0.,0.,-0.0026));
#2296=CARTESIAN_POINT('',(0.,0.,-0.0026));
#2297=CARTESIAN_POINT('',(0.,0.,-0.0026));
#2298=CARTESIAN_POINT('',(0.00374,0.00471,0.004));
#2299=CARTESIAN_POINT('',(-1.49271406247558E-18,-0.00771,0.001));
#2300=MECHANICAL_DESIGN_GEOMETRIC_PRESENTATION_REPRESENTATION('',(#1357),
#2301);
#2301=(
GEOMETRIC_REPRESENTATION_CONTEXT(3)
GLOBAL_UNCERTAINTY_ASSIGNED_CONTEXT((#2302))
GLOBAL_UNIT_ASSIGNED_CONTEXT((#2305,#2304,#2303))
REPRESENTATION_CONTEXT('Part 1','TOP_LEVEL_ASSEMBLY_PART')
);
#2302=UNCERTAINTY_MEASURE_WITH_UNIT(LENGTH_MEASURE(2.E-5),#2305,
'DISTANCE_ACCURACY_VALUE','Maximum Tolerance applied to model');
#2303=(
NAMED_UNIT(*)
SI_UNIT($,.STERADIAN.)
SOLID_ANGLE_UNIT()
);
#2304=(
NAMED_UNIT(*)
PLANE_ANGLE_UNIT()
SI_UNIT($,.RADIAN.)
);
#2305=(
LENGTH_UNIT()
NAMED_UNIT(*)
SI_UNIT($,.METRE.)
);
#2306=PRODUCT_DEFINITION_SHAPE('','',#2307);
#2307=PRODUCT_DEFINITION('','',#2309,#2308);
#2308=PRODUCT_DEFINITION_CONTEXT('',#2315,'design');
#2309=PRODUCT_DEFINITION_FORMATION_WITH_SPECIFIED_SOURCE('','',#2311,
 .NOT_KNOWN.);
#2310=PRODUCT_RELATED_PRODUCT_CATEGORY('','',(#2311));
#2311=PRODUCT('Part 1','Part 1','Part 1',(#2313));
#2312=PRODUCT_CATEGORY('','');
#2313=PRODUCT_CONTEXT('',#2315,'mechanical');
#2314=APPLICATION_PROTOCOL_DEFINITION('international standard',
'ap242_managed_model_based_3d_engineering',2020,#2315);
#2315=APPLICATION_CONTEXT('managed model based 3d engineering');
ENDSEC;
END-ISO-10303-21;
